#N canvas -11 27 1037 917 8;
#X obj 41 92 loop;
#X obj 6 9 inlet;
#X obj 40 205 loop;
#X obj 40 226 bng 15 250 50 0 empty empty empty 0 -8 0 8 #fcfcfc #000000 #000000;
#X msg 132 177 0;
#X obj 40 270 /, f 14;
#X obj 41 179 t f f, f 17;
#X obj 41 117 t b b b, f 36;
#X msg 258 127 -1;
#X msg 218 162 0;
#X msg 6 394 auto;
#X msg 63 391 line 0;
#X obj 6 369 t b b;
#X obj 41 73 t f b, f 59;
#X obj 6 38 t b f, f 7;
#X msg 40 246 500;
#X obj 41 137 random 3;
#X obj 246 298 outlet;
#X obj 6 420 text sequence quialtera\$0 -g;
#X obj 258 163 text delete quialtera\$0;
#X obj 247 8 text define quialtera\$0;
#X obj 40 341 text insert quialtera\$0;
#X msg 93 10 2;
#X obj 40 291 list append \$0;
#X msg 40 321 \$1 note-\$2 bang;
#X obj 246 277 r note-\$0;
#X obj 41 158 + 1;
#X connect 0 0 7 0;
#X connect 1 0 14 0;
#X connect 2 0 3 0;
#X connect 3 0 15 0;
#X connect 5 0 23 0;
#X connect 6 0 2 0;
#X connect 6 1 5 1;
#X connect 7 0 16 0;
#X connect 7 1 4 0;
#X connect 7 2 9 0;
#X connect 8 0 19 0;
#X connect 10 0 18 0;
#X connect 11 0 18 0;
#X connect 12 0 10 0;
#X connect 12 1 11 0;
#X connect 13 0 0 0;
#X connect 13 1 8 0;
#X connect 14 0 12 0;
#X connect 14 1 13 0;
#X connect 15 0 5 0;
#X connect 16 0 26 0;
#X connect 22 0 14 0;
#X connect 23 0 24 0;
#X connect 24 0 21 0;
#X connect 25 0 17 0;
#X connect 26 0 6 0;
