#N canvas 641 -11 940 891 8;
#X obj 38 75 loop;
#X obj 6 9 inlet;
#X obj 37 184 loop;
#X obj 37 203 bng 15 250 50 0 empty empty empty 0 -8 0 8 #fcfcfc #000000 #000000;
#X obj 37 249 /, f 14;
#X obj 37 164 t f f, f 17;
#X msg 330 101 -1;
#X msg 6 390 auto;
#X msg 36 389 line 0;
#X obj 6 365 t b b;
#X obj 38 56 t f b, f 59;
#X obj 6 38 t b f, f 7;
#X msg 37 225 4481;
#X obj 37 119 random 3;
#X obj 156 419 outlet;
#X obj 6 420 text sequence quialtera\$0 -g;
#X obj 330 137 text delete quialtera\$0;
#X obj 247 8 text define quialtera\$0;
#X obj 37 330 text insert quialtera\$0;
#X msg 93 10 2;
#X obj 37 271 list append \$0;
#X obj 156 400 r note-\$0;
#X obj 37 143 + 1;
#X obj 165 141 expr random($f1 \, $f2);
#X obj 165 122 unpack f f, f 21;
#X msg 165 161 set \$1;
#X obj 165 103 r tupletTimeLento;
#X obj 37 290 list append;
#X msg 37 310 \$1 note-\$2 \$3;
#X obj 235 276 expr random($f1 \, $f2);
#X obj 235 257 unpack f f, f 21;
#X obj 235 238 r graoSrLen;
#X obj 235 297 nbx 5 14 -1e+37 1e+37 0 0 empty empty empty 0 -8 0 8 #fcfcfc #000000 #000000 0 256;
#X msg 153 219 1000 4000;
#X obj 38 96 b;
#X obj 153 194 loadbang;
#X connect 0 0 34 0;
#X connect 1 0 11 0;
#X connect 2 0 3 0;
#X connect 3 0 12 0;
#X connect 4 0 20 0;
#X connect 5 0 2 0;
#X connect 5 1 4 1;
#X connect 6 0 16 0;
#X connect 7 0 15 0;
#X connect 8 0 15 0;
#X connect 9 0 7 0;
#X connect 9 1 8 0;
#X connect 10 0 0 0;
#X connect 10 1 6 0;
#X connect 11 0 9 0;
#X connect 11 1 10 0;
#X connect 12 0 4 0;
#X connect 13 0 22 0;
#X connect 19 0 11 0;
#X connect 20 0 27 0;
#X connect 21 0 14 0;
#X connect 22 0 5 0;
#X connect 23 0 25 0;
#X connect 24 0 23 0;
#X connect 24 1 23 1;
#X connect 25 0 12 0;
#X connect 26 0 24 0;
#X connect 27 0 28 0;
#X connect 28 0 18 0;
#X connect 29 0 27 1;
#X connect 29 0 32 0;
#X connect 30 0 29 0;
#X connect 30 1 29 1;
#X connect 31 0 30 0;
#X connect 33 0 30 0;
#X connect 34 0 13 0;
#X connect 35 0 33 0;
