#N canvas 370 32 888 637 8;
#X obj 19 12 inlet;
#X obj 19 138 tabplay~, f 13;
#X obj 19 301 outlet~;
#X obj 61 301 outlet~;
#X obj 186 111 bng 15 250 50 0 empty empty empty 0 -8 0 8 #fcfcfc #000000 #000000;
#X obj 19 39 t b a b b, f 18;
#X obj 106 191 switch~;
#X msg 106 60 1;
#X msg 81 161 0;
#X obj 19 252 earplug~, f 9;
#X obj 165 140 expr random(90 \, 270);
#X obj 106 154 tgl 15 0 empty empty empty 0 -8 0 8 #fcfcfc #000000 #000000 0 1;
#X obj 19 159 *~ 1;
#X connect 0 0 5 0;
#X connect 1 0 12 0;
#X connect 1 1 8 0;
#X connect 4 0 10 0;
#X connect 5 0 1 0;
#X connect 5 1 1 0;
#X connect 5 2 10 0;
#X connect 5 3 7 0;
#X connect 7 0 11 0;
#X connect 8 0 11 0;
#X connect 9 0 2 0;
#X connect 9 1 3 0;
#X connect 10 0 9 1;
#X connect 11 0 6 0;
#X connect 12 0 9 0;
