#N canvas 320 3 1602 671 8;
#X obj 13 91 adc~ 1;
#N canvas 495 32 1206 947 pitch 0;
#X obj 4 168 float;
#X obj 4 141 expr if($f1 > ($f2 + 0.5) || $f1 < ($f2 - 0.5) \, $f1 \, $f2);
#X obj 4 211 nbx 5 14 -1e+37 1e+37 0 0 empty empty empty 0 -8 0 8 #fcfcfc #000000 #000000 0 256;
#X obj 4 230 change;
#X obj 52 365 float;
#X obj 45 296 t f b b, f 32;
#X msg 202 328 stop;
#X obj 4 296 t b;
#X msg 4 317 stop;
#X obj 4 454 outlet;
#X obj 126 210 inlet;
#X obj 4 251 + 0, f 25;
#X obj 52 386 change;
#X obj 4 121 spigot, f 7;
#X obj 4 5 inlet~;
#X obj 4 190 cyclone/round 1 @nearest 1;
#X obj 446 81 s PEAKS;
#X obj 4 269 else/spread 48 84;
#X obj 36 103 expr if($f1 < 48 || $f1 > 80 \, 0 \, 1);
#X obj 4 82 t f f f, f 13;
#X obj 4 61 sigmund~ -npts 2048 -hop 256 -npeak 15 -minpower 60 -quality 0.4 pitch peaks, f 89;
#X obj 123 360 delay 500 1 msec;
#X obj 63 423 spigot;
#X obj 90 406 tgl 15 0 empty empty empty 0 -8 0 8 #fcfcfc #000000 #000000 0 1;
#X obj 90 386 r gestosExtra;
#X obj 242 451 outlet;
#X obj 259 400 else/pitch2note;
#X obj 287 313 loadbang;
#X msg 287 334 sharp;
#X connect 0 0 1 1;
#X connect 0 0 15 0;
#X connect 1 0 0 0;
#X connect 2 0 3 0;
#X connect 3 0 11 0;
#X connect 4 0 12 0;
#X connect 5 0 4 1;
#X connect 5 1 21 0;
#X connect 5 2 6 0;
#X connect 6 0 21 0;
#X connect 7 0 8 0;
#X connect 8 0 21 0;
#X connect 10 0 11 1;
#X connect 11 0 17 0;
#X connect 12 0 22 0;
#X connect 13 0 1 0;
#X connect 14 0 20 0;
#X connect 15 0 2 0;
#X connect 17 0 7 0;
#X connect 17 1 5 0;
#X connect 17 2 7 0;
#X connect 18 0 13 1;
#X connect 19 0 13 0;
#X connect 19 1 18 0;
#X connect 20 0 19 0;
#X connect 20 1 16 0;
#X connect 21 0 4 0;
#X connect 22 0 9 0;
#X connect 22 0 26 0;
#X connect 23 0 22 1;
#X connect 24 0 23 0;
#X connect 26 0 25 0;
#X connect 27 0 28 0;
#X connect 28 0 26 0;
#X restore 151 99 pd pitch;
#X obj 654 307 dac~, f 13;
#X msg 583 281 \; pd dsp \$1;
#X obj 583 253 tgl 25 0 empty empty empty 0 -8 0 8 #fcfcfc #000000 #000000 0 1;
#X obj 347 178 change;
#X obj 347 128 expr if($f1 > $f2 \, 1 \, 0);
#X obj 464 82 loadbang;
#X msg 464 103 -5;
#X obj 490 103 r followerGain;
#X obj 347 161 spigot;
#X obj 580 62 r pressedkey;
#N canvas 606 32 1167 381 TEXTURA 0;
#X obj 4 152 throw~ dac1;
#X obj 151 152 throw~ dac2;
#X msg 4 32 next 1;
#X obj 4 5 r facaGesto;
#X obj 4 105 else/giga.rev~;
#X obj 4 126 *~ 0.5;
#X obj 151 107 else/giga.rev~;
#X obj 151 128 *~ 0.5;
#X msg 198 49 size 50 \, decay 1.5 \, damp 0.1 \, bw 0.75 \, dry 0.84 \, early 0.31 \, late 0.1, f 69;
#X obj 198 11 loadbang;
#X obj 48 32 bng 15 250 50 0 empty empty empty 0 -8 0 8 #fcfcfc #000000 #000000;
#X obj 4 80 clone Libs/clone-granulador 10;
#X connect 2 0 11 0;
#X connect 3 0 2 0;
#X connect 3 0 10 0;
#X connect 4 0 5 0;
#X connect 5 0 0 0;
#X connect 6 0 7 0;
#X connect 7 0 1 0;
#X connect 9 0 8 0;
#X connect 11 0 4 0;
#X connect 11 1 6 0;
#X restore 9 239 pd TEXTURA;
#N canvas 607 32 535 400 GRANULADOR 0;
#X text 115 109 TEXTURAS;
#N canvas 343 32 1171 971 GRANULADOR 0;
#X obj 4 4 adc~ 1;
#X obj 46 4 r recording;
#X obj 4 65 tabwrite~ recording;
#X obj 106 464 throw~ dac1;
#X obj 398 459 throw~ dac2;
#X obj 434 2 array define recording 96000;
#X obj 236 242 loadbang;
#X obj 434 19 array define grain-env 2048;
#N canvas 567 332 734 532 hanning 0;
#X obj 9 42 else/hann~;
#X obj 9 188 tabwrite~ grain-env;
#X msg 294 145 1;
#X obj 9 12 sig~ 1;
#X obj 194 91 t b b b;
#X msg 194 166 0;
#X obj 194 6 inlet;
#X obj 106 7 r pd-dsp-started;
#X obj 227 6 loadbang;
#X obj 227 27 del 1000 1 msec;
#X obj 194 68 delay 2048 1 samp;
#X obj 194 145 delay 4096 1 samp;
#X obj 173 201 block~ 2048;
#X connect 0 0 1 0;
#X connect 3 0 0 0;
#X connect 4 0 11 0;
#X connect 4 1 1 0;
#X connect 4 2 2 0;
#X connect 6 0 10 0;
#X connect 7 0 10 0;
#X connect 8 0 9 0;
#X connect 9 0 10 0;
#X connect 10 0 4 0;
#X connect 11 0 5 0;
#X restore 266 66 pd hanning;
#N canvas 965 171 894 561 record 0;
#X obj 6 229 *~, f 8;
#X obj 94 63 t b b b b, f 14;
#X obj 226 162 line~;
#X msg 226 85 0 \, 1 500;
#X msg 128 109 1 \, 0 900;
#X obj 141 85 del 1000 1 msec;
#X obj 6 10 inlet~;
#X obj 94 9 inlet;
#X msg 116 160 stop;
#X obj 116 139 delay 96000 1 samp;
#X obj 51 257 outlet~;
#X obj 101 260 outlet;
#X connect 0 0 10 0;
#X connect 1 0 11 0;
#X connect 1 1 9 0;
#X connect 1 2 5 0;
#X connect 1 3 3 0;
#X connect 2 0 0 1;
#X connect 3 0 2 0;
#X connect 4 0 2 0;
#X connect 5 0 4 0;
#X connect 6 0 0 0;
#X connect 7 0 1 0;
#X connect 8 0 11 0;
#X connect 9 0 8 0;
#X restore 4 44 pd record;
#X obj 148 20 bng 15 250 50 0 empty empty empty 0 -8 0 8 #fcfcfc #000000 #000000;
#X obj 106 372 else/giga.rev~ -size 100 -damp 1 -bw 0.7 -dry 1 -early 0.18 -late 1 -spread 1;
#X obj 5 127 delay 1 1 msec;
#X obj 37 214 t b f;
#X obj 37 238 delay 1 1 msec;
#X obj 5 148 t b b, f 7;
#X obj 37 190 f;
#X msg 5 286 pause \$1;
#X msg 5 169 0;
#X msg 37 261 1;
#X obj 148 3 inlet;
#X obj 203 18 inlet;
#X obj 203 66 unpack f f;
#X obj 5 310 grainer~ 1, f 41;
#X obj 5 407 earplug~, f 57;
#X obj 5 104 t b f b, f 28;
#X obj 142 170 + 180;
#X msg 236 267 gtab recording \, atab grain-env \, gar 0.4 \, gs 0.3 \, azr 180 \, ag 0.5 \, gfr 0.1 \, start \, pause 1;
#X obj 142 149 random 90;
#X obj 124 270 outlet;
#X obj 5 348 *~ 0.3;
#X obj 106 348 *~ 0.3;
#X obj 272 309 r volumegeralgranulador;
#X obj 272 330 nbx 5 14 -1e+37 1e+37 0 0 empty empty empty 0 -8 0 8 #fcfcfc #000000 #000000 0 256;
#X connect 0 0 9 0;
#X connect 1 0 9 1;
#X connect 6 0 27 0;
#X connect 9 0 2 0;
#X connect 9 1 2 0;
#X connect 10 0 9 1;
#X connect 10 0 8 0;
#X connect 11 0 3 0;
#X connect 11 1 4 0;
#X connect 12 0 15 0;
#X connect 13 0 14 0;
#X connect 13 1 14 1;
#X connect 14 0 19 0;
#X connect 15 0 18 0;
#X connect 15 1 16 0;
#X connect 16 0 13 0;
#X connect 17 0 23 0;
#X connect 17 0 29 0;
#X connect 18 0 17 0;
#X connect 19 0 17 0;
#X connect 20 0 10 0;
#X connect 21 0 22 0;
#X connect 22 0 25 0;
#X connect 22 1 16 1;
#X connect 23 0 30 0;
#X connect 23 1 31 0;
#X connect 23 2 11 0;
#X connect 24 0 3 0;
#X connect 24 1 4 0;
#X connect 25 0 12 0;
#X connect 25 1 12 1;
#X connect 25 2 28 0;
#X connect 26 0 24 1;
#X connect 27 0 23 0;
#X connect 28 0 26 0;
#X connect 30 0 24 0;
#X connect 31 0 11 0;
#X connect 32 0 31 1;
#X connect 32 0 30 1;
#X connect 32 0 33 0;
#X restore 9 111 pd GRANULADOR;
#X f 20;
#X obj 9 88 t b a, f 20;
#X msg 9 66 50 2000;
#X obj 9 8 inlet;
#X obj 9 132 b;
#X obj 9 153 delay 3000 1 msec;
#X obj 198 159 switch~;
#X msg 9 174 0;
#X obj 166 51 t b b;
#X msg 198 72 1;
#X msg 166 71 stop;
#X obj 198 133 tgl 15 0 empty empty empty 0 -8 0 8 #fcfcfc #000000 #000000 0 1;
#X obj 9 29 t b b, f 32;
#X connect 1 0 5 0;
#X connect 2 0 1 0;
#X connect 2 1 1 1;
#X connect 3 0 2 0;
#X connect 4 0 13 0;
#X connect 5 0 6 0;
#X connect 6 0 8 0;
#X connect 8 0 12 0;
#X connect 9 0 11 0;
#X connect 9 1 10 0;
#X connect 10 0 12 0;
#X connect 11 0 6 0;
#X connect 12 0 7 0;
#X connect 13 0 3 0;
#X connect 13 1 9 0;
#X restore 65 239 pd GRANULADOR;
#N canvas 740 32 838 783 ESPECTRO 0;
#X obj 9 9 inlet;
#X text 113 173 TEXTURAS;
#N canvas 569 32 490 851 ESPECTRO 0;
#X msg 2 277 sigmund \$1 \$2 \$3 \$4 \$5;
#X obj 124 279 unpack f;
#X obj 2 257 t a a, f 25;
#X obj 124 300 sel 14;
#X msg 124 364 0;
#N canvas 0 32 1894 636 freeze 0;
#X obj 6 7 inlet;
#X obj 6 36 route go sigmund switch, f 113;
#X obj 516 268 outlet~;
#X obj 30 158 Libs/partial;
#X obj 97 158 Libs/partial;
#X obj 165 158 Libs/partial;
#X obj 232 158 Libs/partial;
#X obj 299 158 Libs/partial;
#X obj 366 158 Libs/partial;
#X obj 434 158 Libs/partial;
#X obj 501 158 Libs/partial;
#X obj 30 102 route 1 2 3 4 5 6 7 8 9 10 11 12 13 14, f 140;
#X obj 569 158 Libs/partial;
#X obj 636 158 Libs/partial;
#X obj 704 158 Libs/partial;
#X obj 771 158 Libs/partial;
#X obj 838 158 Libs/partial;
#X obj 905 158 Libs/partial;
#X connect 0 0 1 0;
#X connect 1 1 11 0;
#X connect 3 0 2 0;
#X connect 4 0 2 0;
#X connect 5 0 2 0;
#X connect 6 0 2 0;
#X connect 7 0 2 0;
#X connect 8 0 2 0;
#X connect 9 0 2 0;
#X connect 10 0 2 0;
#X connect 11 0 3 0;
#X connect 11 1 4 0;
#X connect 11 2 5 0;
#X connect 11 3 6 0;
#X connect 11 4 7 0;
#X connect 11 5 8 0;
#X connect 11 6 9 0;
#X connect 11 7 10 0;
#X connect 11 8 12 0;
#X connect 11 9 13 0;
#X connect 11 10 14 0;
#X connect 11 11 15 0;
#X connect 11 12 16 0;
#X connect 11 13 17 0;
#X connect 12 0 2 0;
#X connect 13 0 2 0;
#X connect 14 0 2 0;
#X connect 15 0 2 0;
#X connect 16 0 2 0;
#X connect 17 0 2 0;
#X restore 2 299 pd freeze;
#X obj 104 33 inlet;
#X obj 2 395 throw~ dac1;
#X obj 69 395 throw~ dac2;
#X obj 2 360 else/giga.rev~;
#X obj 40 2 bng 15 250 50 0 empty empty empty 0 -8 0 8 #fcfcfc #000000 #000000;
#X obj 2 320 *~ 0.5;
#X obj 3 67 r PEAKS;
#X obj 3 132 spigot;
#X msg 104 54 1;
#X connect 0 0 5 0;
#X connect 1 0 3 0;
#X connect 2 0 0 0;
#X connect 2 1 1 0;
#X connect 3 0 4 0;
#X connect 4 0 13 1;
#X connect 5 0 11 0;
#X connect 6 0 14 0;
#X connect 9 0 7 0;
#X connect 9 1 8 0;
#X connect 11 0 9 0;
#X connect 12 0 13 0;
#X connect 13 0 2 0;
#X connect 14 0 13 1;
#X restore 9 173 pd ESPECTRO;
#X f 20;
#X obj 9 71 sel 68, f 9;
#X obj 178 222 s ui_process1note;
#X obj 203 105 loadbang;
#X msg 203 126 sharp;
#X obj 178 148 else/pitch2note;
#X obj 115 71 loadbang;
#X obj 178 14 r ui_notename;
#X msg 115 90 58;
#X listbox 200 178 10 0 0 0 - - - 0;
#X obj 27 107 bng 15 250 50 0 empty empty empty 0 -8 0 8 #fcfcfc #000000 #000000;
#X obj 50 138 bng 15 250 50 0 empty empty empty 0 -8 0 8 #fcfcfc #000000 #000000;
#X connect 0 0 3 0;
#X connect 3 0 2 0;
#X connect 3 0 12 0;
#X connect 5 0 6 0;
#X connect 6 0 7 0;
#X connect 7 0 4 0;
#X connect 7 0 11 0;
#X connect 8 0 10 0;
#X connect 9 0 7 0;
#X connect 9 0 3 1;
#X connect 10 0 7 0;
#X connect 13 0 2 0;
#X restore 136 239 pd ESPECTRO;
#X obj 606 120 s eventNumber;
#X obj 65 196 r grao;
#X text 372 59 AMPLITUDE READER;
#X obj 275 121 tgl 15 0 empty empty empty 0 -8 0 8 #fcfcfc #000000 #000000 0 1;
#X text 653 60 KEY RECEIVER;
#X text 577 182 SOUND OUTPUT;
#X text 163 62 PITCH READER;
#N canvas 0 50 450 250 (subpatch) 0;
#X coords 0 1 100 -1 299 195 2 0 0;
#X restore 271 59 graph;
#N canvas 0 50 450 250 (subpatch) 0;
#X coords 0 1 100 -1 207 122 1;
#X restore 575 60 graph;
#N canvas 0 50 450 250 (subpatch) 0;
#X coords 0 1 100 -1 207 146 1 0 0;
#X restore 575 184 graph;
#X obj 70 214 r graoAmp;
#X obj 347 232 s graoAmp;
#N canvas 0 50 450 250 (subpatch) 0;
#X coords 0 1 100 -1 118 115 2 0 0;
#X restore 5 59 graph;
#X obj 151 152 s pitchDetected, f 18;
#X obj 136 182 r pitchDetected;
#N canvas 0 50 450 250 (subpatch) 0;
#X coords 0 1 100 -1 254 80 2 0 0;
#X restore 3 178 graph;
#X text 9 193 SYNTHS;
#X obj 105 88 vu 8 80 audioinput empty -1 -8 0 8 #404040 #000000 0 0;
#X obj 347 100 r audioinput;
#X obj 29 137 s audioinput;
#X obj 29 120 else/vu~;
#X text 27 69 SOUND INPUT;
#X obj 13 154 throw~ soundinput;
#X obj 151 82 catch~ soundinput;
#N canvas 0 50 450 250 (subpatch) 0;
#X coords 0 1 100 -1 122 115 2 0 0;
#X restore 137 60 graph;
#X text 291 18 PARA VIOLINO DE CINCO CORDAS \, VIOLÃO E ELETRÔNICA.;
#X text 366 4 IMPROVISO I;
#N canvas 207 53 968 799 A 0;
#X obj 12 10 inlet;
#X obj 12 258 s tempo_gesto;
#X obj 12 230 line, f 9;
#X obj 111 230 s start_gesto;
#X msg 111 208 1;
#X msg 12 208 10000 \, 1000 60000;
#X obj 309 227 vline~;
#N canvas 39 77 1124 679 CANVAS 0;
#X msg 15 191 1;
#X obj 15 277 s ui_p5js_clearcanvas;
#X obj 52 141 line, f 11;
#X obj 15 172 metro 30;
#X msg 15 54 1;
#X obj 15 7 inlet;
#X msg 52 109 33 \, 200 60000;
#X obj 168 312 s ui_draw;
#X obj 189 132 expr 1000 / $f1;
#X obj 274 153 expr if($f1 != 1 \, 0 \, 1);
#X obj 168 283 spigot;
#X obj 15 33 t b b b, f 15;
#X obj 168 232 metro;
#X obj 189 153 nbx 5 14 -1e+37 1e+37 0 0 empty empty empty 0 -8 0 8 #fcfcfc #000000 #000000 0 256;
#X msg 168 253 1;
#X obj 189 81 line, f 8;
#X obj 189 102 nbx 5 14 -1e+37 1e+37 0 0 empty empty empty 0 -8 0 8 #fcfcfc #000000 #000000 0 256;
#X msg 189 56 3 \, 15 60000;
#X obj 274 174 t f f f, f 26;
#X obj 15 217 spigot;
#X obj 274 132 r pressedkey;
#X connect 0 0 19 0;
#X connect 2 0 3 1;
#X connect 3 0 0 0;
#X connect 4 0 3 0;
#X connect 5 0 11 0;
#X connect 6 0 2 0;
#X connect 8 0 13 0;
#X connect 9 0 18 0;
#X connect 10 0 7 0;
#X connect 11 0 4 0;
#X connect 11 1 6 0;
#X connect 11 2 17 0;
#X connect 12 0 14 0;
#X connect 13 0 12 1;
#X connect 14 0 10 0;
#X connect 15 0 16 0;
#X connect 16 0 8 0;
#X connect 17 0 15 0;
#X connect 18 0 10 1;
#X connect 18 1 12 0;
#X connect 18 2 19 1;
#X connect 19 0 1 0;
#X connect 20 0 9 0;
#X restore 232 226 pd CANVAS;
#N canvas 108 32 1611 804 GESTURES 0;
#X obj 2 2 inlet;
#X msg 2 116 1;
#X obj 54 74 line;
#X msg 2 51 1;
#X obj 2 97 metro 10000;
#X obj 169 54 t b b;
#X obj 191 94 line;
#X obj 169 151 line;
#X msg 191 73 100 \, 3000 60000;
#X msg 169 133 150 \, 8000 60000;
#X msg 54 54 10000 \, 400 60000;
#X obj 2 327 s facaGesto;
#X obj 169 190 pack f f, f 15;
#X obj 169 278 s tupletTimeLento;
#X text 166 322 Lembrar de desligar tudo isso quando outro tiver fazer;
#X obj 406 166 expr if($f1 != 1 \, 0 \, 1);
#X obj 2 239 spigot;
#X obj 169 241 spigot;
#X obj 406 147 r pressedkey;
#X obj 328 264 s filtroCutOff;
#X obj 328 234 spigot;
#X obj 297 78 line;
#X msg 296 53 200 \, 4000 45000;
#X obj 157 170 f;
#X obj 83 122 metro 500;
#X obj 402 95 s graoSrLen;
#X obj 578 320 s graoSrLen;
#X obj 695 169 loadbang;
#X msg 695 199 400 900;
#X obj 578 195 pack f f;
#X obj 2 30 t b b b b b, f 92;
#X obj 595 67 t b b;
#X obj 617 107 line;
#X obj 595 143 line;
#X msg 617 86 100 \, 3000 60000;
#X msg 595 125 150 \, 8000 60000;
#X obj 583 162 f;
#X connect 0 0 30 0;
#X connect 1 0 16 0;
#X connect 2 0 4 1;
#X connect 3 0 4 0;
#X connect 3 0 24 0;
#X connect 4 0 1 0;
#X connect 5 0 9 0;
#X connect 5 1 8 0;
#X connect 6 0 12 1;
#X connect 7 0 23 1;
#X connect 8 0 6 0;
#X connect 9 0 7 0;
#X connect 10 0 2 0;
#X connect 12 0 17 0;
#X connect 15 0 17 1;
#X connect 15 0 16 1;
#X connect 15 0 20 1;
#X connect 16 0 11 0;
#X connect 17 0 13 0;
#X connect 18 0 15 0;
#X connect 20 0 19 0;
#X connect 21 0 20 0;
#X connect 22 0 21 0;
#X connect 23 0 12 0;
#X connect 24 0 23 0;
#X connect 24 0 36 0;
#X connect 27 0 28 0;
#X connect 28 0 26 0;
#X connect 29 0 26 0;
#X connect 30 0 3 0;
#X connect 30 1 10 0;
#X connect 30 2 5 0;
#X connect 30 3 22 0;
#X connect 30 4 31 0;
#X connect 31 0 35 0;
#X connect 31 1 34 0;
#X connect 32 0 29 1;
#X connect 33 0 36 1;
#X connect 34 0 32 0;
#X connect 35 0 33 0;
#X connect 36 0 29 0;
#X restore 210 246 pd GESTURES;
#X obj 12 187 t b b b b, f 60;
#X obj 84 131 del 60000 1 msec;
#X obj 84 149 print PART_1;
#X obj 155 75 s gestosExtra;
#X msg 154 58 0;
#X obj 210 206 t b b;
#X obj 12 31 t b b b, f 29;
#X obj 247 355 throw~ volumegeral;
#X obj 103 276 expr if($f1 != 1 \, 0 \, 1);
#X obj 103 257 r pressedkey;
#X msg 309 206 0 \, 1 60000;
#X obj 247 325 else/xgate~ 1;
#X connect 0 0 15 0;
#X connect 2 0 1 0;
#X connect 4 0 3 0;
#X connect 5 0 2 0;
#X connect 6 0 20 0;
#X connect 9 0 5 0;
#X connect 9 1 4 0;
#X connect 9 2 14 0;
#X connect 9 3 19 0;
#X connect 10 0 11 0;
#X connect 13 0 12 0;
#X connect 14 0 8 0;
#X connect 14 1 7 0;
#X connect 15 0 9 0;
#X connect 15 1 10 0;
#X connect 15 2 13 0;
#X connect 17 0 20 0;
#X connect 18 0 17 0;
#X connect 19 0 6 0;
#X connect 20 0 16 0;
#X restore 580 157 pd A;
#N canvas 154 38 877 434 B 0;
#X obj 12 10 inlet;
#N canvas 39 77 1124 679 CANVAS 0;
#X msg 15 191 1;
#X obj 15 287 s ui_p5js_clearcanvas;
#X obj 52 141 line, f 11;
#X obj 15 172 metro 30;
#X msg 15 54 1;
#X obj 15 7 inlet;
#X obj 191 288 s ui_draw;
#X obj 189 132 expr 1000 / $f1;
#X obj 191 259 spigot;
#X obj 15 33 t b b b, f 15;
#X obj 191 208 metro;
#X obj 274 174 t f f;
#X obj 189 153 nbx 5 14 -1e+37 1e+37 0 0 empty empty empty 0 -8 0 8 #fcfcfc #000000 #000000 0 256;
#X msg 191 229 1;
#X obj 189 81 line, f 8;
#X obj 189 102 nbx 5 14 -1e+37 1e+37 0 0 empty empty empty 0 -8 0 8 #fcfcfc #000000 #000000 0 256;
#X msg 189 56 15 \, 24 60000;
#X obj 274 153 expr if($f1 != 2 \, 0 \, 1);
#X obj 15 243 spigot;
#X msg 52 109 200 \, 25000 60000;
#X obj 69 172 sel 25000;
#X obj 69 193 print PART_2;
#X obj 274 132 r pressedkey;
#X connect 0 0 18 0;
#X connect 2 0 3 1;
#X connect 2 0 20 0;
#X connect 3 0 0 0;
#X connect 4 0 3 0;
#X connect 5 0 9 0;
#X connect 7 0 12 0;
#X connect 8 0 6 0;
#X connect 9 0 4 0;
#X connect 9 1 19 0;
#X connect 9 2 16 0;
#X connect 10 0 13 0;
#X connect 11 0 8 1;
#X connect 11 0 18 1;
#X connect 11 1 10 0;
#X connect 12 0 10 1;
#X connect 13 0 8 0;
#X connect 14 0 15 0;
#X connect 15 0 7 0;
#X connect 16 0 14 0;
#X connect 17 0 11 0;
#X connect 18 0 1 0;
#X connect 19 0 2 0;
#X connect 20 0 21 0;
#X connect 22 0 17 0;
#X restore 83 71 pd CANVAS;
#N canvas 301 48 1066 804 GESTURES 0;
#X obj 2 2 inlet;
#X msg 2 169 1;
#X msg 2 51 1;
#X obj 2 327 s facaGesto;
#X text 64 328 Lembrar de desligar tudo isso quando outro tiver fazer;
#X obj 2 239 spigot;
#X obj 344 148 expr if($f1 != 2 \, 0 \, 1);
#X obj 344 130 r pressedkey;
#X obj 204 291 s filtroCutOff;
#X obj 204 261 spigot;
#X obj 204 137 line, f 7;
#X obj 251 261 s filterHip;
#X obj 251 238 spigot;
#X obj 251 158 line;
#X obj 204 66 t b b, f 10;
#X obj 2 97 metro 200;
#X obj 2 118 t b b;
#X obj 26 190 nbx 5 14 -1e+37 1e+37 0 0 empty empty empty 0 -8 0 8 #fcfcfc #000000 #000000 0 256;
#X obj 57 247 bng 15 250 50 0 empty empty empty 0 -8 0 8 #fcfcfc #000000 #000000;
#X msg 251 130 5000 \, 3000 60000;
#X msg 204 91 4000 \, 1500 60000;
#X obj 405 85 s tupletTimeLento;
#X obj 2 30 t b b b, f 81;
#X msg 404 54 300 600;
#X obj 26 169 expr random(200 \, 600);
#X connect 0 0 22 0;
#X connect 1 0 5 0;
#X connect 2 0 15 0;
#X connect 5 0 3 0;
#X connect 6 0 5 1;
#X connect 6 0 9 1;
#X connect 6 0 12 1;
#X connect 7 0 6 0;
#X connect 9 0 8 0;
#X connect 10 0 9 0;
#X connect 12 0 11 0;
#X connect 13 0 12 0;
#X connect 14 0 20 0;
#X connect 14 1 19 0;
#X connect 15 0 16 0;
#X connect 16 0 1 0;
#X connect 16 1 24 0;
#X connect 18 0 3 0;
#X connect 19 0 13 0;
#X connect 20 0 10 0;
#X connect 22 0 2 0;
#X connect 22 1 14 0;
#X connect 22 2 23 0;
#X connect 23 0 21 0;
#X connect 24 0 15 1;
#X connect 24 0 17 0;
#X restore 12 70 pd GESTURES;
#X obj 12 31 t b b b, f 29;
#X obj 154 137 del 60000 1 msec;
#X obj 154 155 print PART_2;
#X obj 246 167 throw~ volumegeral;
#X obj 170 73 r pressedkey;
#X obj 170 92 expr if($f1 != 2 \, 0 \, 1);
#X obj 308 90 sig~ 1;
#X obj 246 137 else/xgate~ 1;
#X connect 0 0 3 0;
#X connect 3 0 2 0;
#X connect 3 1 1 0;
#X connect 3 2 4 0;
#X connect 4 0 5 0;
#X connect 7 0 8 0;
#X connect 8 0 10 0;
#X connect 9 0 10 0;
#X connect 10 0 6 0;
#X restore 612 157 pd B;
#N canvas 0 226 1516 484 C 0;
#X obj 12 10 inlet;
#X obj 243 73 metro 4000;
#X obj 243 94 expr random(4000 \, 10000);
#X obj 243 179 s espectro;
#X obj 270 133 expr if($f1 != 3 \, 0 \, 1);
#X obj 243 151 spigot;
#X obj 270 112 r pressedkey;
#N canvas 72 32 1738 804 GESTURES_C 0;
#X obj 2 2 inlet;
#X msg 2 170 1;
#X msg 2 51 1;
#X obj 3 362 s facaGesto;
#X obj 169 278 s tupletTimeLento;
#X text 166 322 Lembrar de desligar tudo isso quando outro tiver fazer;
#X obj 2 239 spigot;
#X obj 169 241 spigot;
#X obj 2 151 metro 400;
#X obj 345 210 expr if($f1 != 3 \, 0 \, 1);
#X obj 77 104 line;
#X msg 77 69 400 \, 6000 60000;
#X obj 169 56 t b b;
#X obj 191 96 line;
#X obj 169 156 line;
#X obj 169 177 pack f f, f 15;
#X obj 77 150 sel 6000;
#X msg 77 176 0;
#X obj 66 278 metro 4000;
#X obj 66 299 expr random(6000 \, 10000);
#X msg 103 176 1;
#X msg 66 320 bang;
#X obj 345 189 r pressedkey;
#X obj 389 126 s gestosExtra;
#X msg 389 56 1;
#X obj 313 56 delay 50 1 sec;
#X msg 313 77 0;
#X obj 345 231 sel 0;
#X msg 345 252 stop;
#X obj 462 126 s gestosExtraAmp;
#X msg 191 75 100 \, 30000 60000;
#X msg 169 135 150 \, 25000 60000;
#X obj 579 320 s graoSrLen;
#X obj 579 253 pack f f;
#X obj 594 62 t b b;
#X obj 616 102 line, f 8;
#X obj 594 195 line, f 10;
#X obj 579 231 f;
#X obj 579 286 spigot;
#X obj 549 126 metro 500;
#X msg 616 81 3000 \, 20000 30000;
#X msg 594 177 8000 \, 15000 30000;
#X obj 744 128 s volumegeralgranulador;
#X obj 2 30 t b b b b b b, f 156;
#X obj 756 105 line;
#X msg 747 73 0 \, 0.3 25000;
#X connect 0 0 43 0;
#X connect 1 0 6 0;
#X connect 2 0 8 0;
#X connect 6 0 3 0;
#X connect 7 0 4 0;
#X connect 8 0 1 0;
#X connect 9 0 7 1;
#X connect 9 0 6 1;
#X connect 9 0 27 0;
#X connect 9 0 38 1;
#X connect 10 0 8 1;
#X connect 10 0 16 0;
#X connect 11 0 10 0;
#X connect 12 0 31 0;
#X connect 12 1 30 0;
#X connect 13 0 15 1;
#X connect 14 0 15 0;
#X connect 15 0 7 0;
#X connect 16 0 17 0;
#X connect 16 0 20 0;
#X connect 17 0 8 0;
#X connect 18 0 19 0;
#X connect 19 0 18 1;
#X connect 19 0 21 0;
#X connect 20 0 18 0;
#X connect 21 0 6 0;
#X connect 22 0 9 0;
#X connect 24 0 23 0;
#X connect 24 0 29 0;
#X connect 24 0 39 0;
#X connect 25 0 26 0;
#X connect 26 0 29 0;
#X connect 27 0 28 0;
#X connect 28 0 25 0;
#X connect 30 0 13 0;
#X connect 31 0 14 0;
#X connect 33 0 38 0;
#X connect 34 0 41 0;
#X connect 34 1 40 0;
#X connect 35 0 33 1;
#X connect 36 0 37 1;
#X connect 37 0 33 0;
#X connect 38 0 32 0;
#X connect 39 0 37 0;
#X connect 40 0 35 0;
#X connect 41 0 36 0;
#X connect 43 0 2 0;
#X connect 43 1 11 0;
#X connect 43 2 12 0;
#X connect 43 3 24 0;
#X connect 43 3 25 0;
#X connect 43 4 34 0;
#X connect 43 5 45 0;
#X connect 44 0 42 0;
#X connect 45 0 44 0;
#X restore 12 95 pd GESTURES_C;
#N canvas 352 41 1339 859 CANVAS_C 0;
#X msg 15 153 1;
#X obj 15 368 s ui_p5js_clearcanvas;
#X obj 120 82 line, f 11;
#X obj 15 117 metro 30;
#X obj 15 7 inlet;
#X obj 204 396 s ui_draw;
#X obj 226 217 expr 1000 / $f1;
#X obj 204 367 spigot;
#X obj 204 316 metro;
#X obj 226 238 nbx 5 14 -1e+37 1e+37 0 0 empty empty empty 0 -8 0 8 #fcfcfc #000000 #000000 0 256;
#X msg 204 337 1;
#X obj 226 173 line, f 8;
#X obj 226 194 nbx 5 14 -1e+37 1e+37 0 0 empty empty empty 0 -8 0 8 #fcfcfc #000000 #000000 0 256;
#X obj 15 324 spigot;
#X obj 311 238 expr if($f1 != 3 \, 0 \, 1);
#X obj 332 173 s ui_showScore;
#X obj 15 33 t b b b b, f 64;
#X obj 332 70 t b b, f 21;
#X msg 332 91 1;
#X obj 67 199 bng 15 250 50 0 empty empty empty 0 -8 0 8 #fcfcfc #000000 #000000;
#X msg 120 54 25000 \, 60000;
#X msg 15 54 0;
#X obj 332 133 t b b, f 19;
#X msg 332 154 1;
#X obj 424 193 s ui_notename;
#X obj 424 173 expr random(48 \, 72);
#X obj 311 217 r pressedkey;
#X obj 226 113 line, f 11;
#X msg 226 86 10 \, 60 60000;
#X obj 332 112 metro 12000;
#X obj 311 259 t f f f;
#X obj 487 74 line;
#X msg 487 39 12000 \, 4000 30000;
#X connect 0 0 13 0;
#X connect 0 0 19 0;
#X connect 2 0 3 1;
#X connect 3 0 0 0;
#X connect 4 0 16 0;
#X connect 6 0 9 0;
#X connect 7 0 5 0;
#X connect 8 0 10 0;
#X connect 9 0 8 1;
#X connect 10 0 7 0;
#X connect 11 0 12 0;
#X connect 12 0 6 0;
#X connect 13 0 1 0;
#X connect 14 0 30 0;
#X connect 16 0 21 0;
#X connect 16 1 20 0;
#X connect 16 2 28 0;
#X connect 16 3 17 0;
#X connect 17 0 18 0;
#X connect 17 1 32 0;
#X connect 18 0 29 0;
#X connect 20 0 2 0;
#X connect 21 0 3 0;
#X connect 22 0 23 0;
#X connect 22 1 25 0;
#X connect 23 0 15 0;
#X connect 25 0 24 0;
#X connect 26 0 14 0;
#X connect 27 0 11 0;
#X connect 28 0 27 0;
#X connect 29 0 22 0;
#X connect 30 0 7 1;
#X connect 30 1 8 0;
#X connect 30 2 13 1;
#X connect 31 0 29 1;
#X connect 32 0 31 0;
#X restore 128 105 pd CANVAS_C;
#X obj 372 76 del 60000 1 msec;
#X obj 372 94 print PART_3;
#X obj 553 170 throw~ volumegeral;
#X obj 477 76 r pressedkey;
#X obj 615 93 sig~ 1;
#X obj 477 95 expr if($f1 != 3 \, 0 \, 1);
#X obj 12 32 t b b b b b, f 70;
#N canvas 80 118 450 426 respostadeamp 0;
#X obj 9 4 inlet;
#X obj 25 171 s respostadeamplitude;
#X msg 9 25 3000 \, 500 25000;
#X obj 9 46 line;
#X obj 53 70 sel 500;
#X msg 53 134 500 \, 5000 25000;
#X obj 53 91 delay 5000 1 msec;
#X connect 0 0 2 0;
#X connect 2 0 3 0;
#X connect 3 0 1 0;
#X connect 3 0 4 0;
#X connect 4 0 6 0;
#X connect 5 0 1 0;
#X connect 6 0 5 0;
#X restore 359 51 pd respostadeamp;
#X obj 553 140 else/xgate~ 1;
#X connect 0 0 15 0;
#X connect 1 0 2 0;
#X connect 2 0 1 1;
#X connect 2 0 5 0;
#X connect 4 0 5 1;
#X connect 5 0 3 0;
#X connect 6 0 4 0;
#X connect 9 0 10 0;
#X connect 12 0 14 0;
#X connect 13 0 17 0;
#X connect 14 0 17 0;
#X connect 15 0 7 0;
#X connect 15 1 8 0;
#X connect 15 2 1 0;
#X connect 15 3 9 0;
#X connect 15 4 16 0;
#X connect 17 0 11 0;
#X restore 645 157 pd C;
#N canvas 382 33 1219 827 D 0;
#X obj 12 10 inlet;
#N canvas 79 32 1794 859 CANVAS 0;
#X msg 15 191 1;
#X obj 121 120 line, f 11;
#X obj 15 7 inlet;
#X obj 204 381 s ui_draw;
#X obj 226 217 expr 1000 / $f1;
#X obj 204 352 spigot;
#X obj 204 301 metro;
#X obj 311 259 t f f;
#X obj 226 238 nbx 5 14 -1e+37 1e+37 0 0 empty empty empty 0 -8 0 8 #fcfcfc #000000 #000000 0 256;
#X msg 204 322 1;
#X obj 226 173 line, f 8;
#X obj 226 194 nbx 5 14 -1e+37 1e+37 0 0 empty empty empty 0 -8 0 8 #fcfcfc #000000 #000000 0 256;
#X obj 15 293 spigot;
#X obj 311 217 r pressedkey;
#X obj 311 238 expr if($f1 != 4 \, 0 \, 1);
#X msg 15 54 1;
#X obj 15 172 metro 5000;
#X msg 121 92 500 \, 5000 60000;
#X obj 31 224 bng 15 250 50 0 empty empty empty 0 -8 0 8 #fcfcfc #000000 #000000;
#X obj 311 295 nbx 5 14 -1e+37 1e+37 0 0 empty empty empty 0 -8 0 8 #fcfcfc #000000 #000000 0 256;
#X obj 15 337 s ui_randomform;
#X msg 226 83 30 \, 0.3 60000;
#X obj 736 127 line, f 12;
#X obj 736 148 s ui_randomlettercolor;
#X obj 670 85 loadbang;
#X obj 15 33 t b b b b b, f 108;
#X msg 736 106 120 \, 240 60000;
#X msg 670 106 120;
#X obj 417 179 s ui_showScore;
#X obj 417 76 t b b, f 21;
#X msg 417 97 1;
#X obj 417 139 t b b, f 19;
#X msg 417 160 1;
#X obj 509 199 s ui_notename;
#X obj 509 179 expr random(48 \, 72);
#X obj 572 80 line;
#X msg 572 45 4000 \, 16000 50000;
#X obj 417 118 metro 4000;
#X connect 0 0 12 0;
#X connect 0 0 18 0;
#X connect 1 0 16 1;
#X connect 2 0 25 0;
#X connect 4 0 8 0;
#X connect 5 0 3 0;
#X connect 6 0 9 0;
#X connect 7 0 5 1;
#X connect 7 0 12 1;
#X connect 7 0 19 0;
#X connect 7 1 6 0;
#X connect 8 0 6 1;
#X connect 9 0 5 0;
#X connect 10 0 11 0;
#X connect 11 0 4 0;
#X connect 12 0 20 0;
#X connect 13 0 14 0;
#X connect 14 0 7 0;
#X connect 15 0 16 0;
#X connect 16 0 0 0;
#X connect 17 0 1 0;
#X connect 21 0 10 0;
#X connect 22 0 23 0;
#X connect 24 0 27 0;
#X connect 25 0 15 0;
#X connect 25 1 17 0;
#X connect 25 2 21 0;
#X connect 25 3 29 0;
#X connect 25 4 26 0;
#X connect 26 0 22 0;
#X connect 27 0 23 0;
#X connect 29 0 30 0;
#X connect 29 1 36 0;
#X connect 30 0 37 0;
#X connect 31 0 32 0;
#X connect 31 1 34 0;
#X connect 32 0 28 0;
#X connect 34 0 33 0;
#X connect 35 0 37 1;
#X connect 36 0 35 0;
#X connect 37 0 31 0;
#X restore 53 104 pd CANVAS;
#X obj 178 106 metro 4000;
#X obj 178 127 expr random(4000 \, 10000);
#X obj 178 228 s espectro;
#X obj 178 200 spigot;
#X obj 12 80 t b b b b b b, f 42;
#X obj 205 157 r pressedkey;
#X obj 205 178 expr if($f1 != 4 \, 0 \, 1);
#X obj 61 152 t b b;
#X obj 83 192 line;
#X obj 61 249 line;
#X obj 61 288 pack f f, f 15;
#X obj 61 376 s tupletTimeLento;
#X obj 61 339 spigot;
#X msg 83 171 100 \, 30000 60000;
#X msg 61 231 150 \, 80000 60000;
#N canvas 652 80 1023 851 RECITAR 0;
#X obj 2 2 inlet;
#X obj 344 371 s facarecita;
#X obj 344 279 clone 10 Libs/delay-clone;
#X obj 2 27 t b b b, f 69;
#X obj 344 219 else/loop 10;
#X msg 344 261 next \$1;
#X obj 344 240 expr random(100 \, 30000);
#X msg 344 54 1;
#X obj 49 0 bng 15 250 50 0 empty empty empty 0 -8 0 8 #fcfcfc #000000 #000000;
#X obj 173 75 bng 15 250 50 0 empty empty empty 0 -8 0 8 #fcfcfc #000000 #000000;
#X obj 344 191 t b f, f 12;
#X obj 344 138 expr if($f1 > 10 \, 10 \, $f1);
#X obj 344 159 nbx 5 14 -1e+37 1e+37 0 0 empty empty empty 0 -8 0 8 #fcfcfc #000000 #000000 0 256;
#X obj 310 73 bng 15 250 50 0 empty empty empty 0 -8 0 8 #fcfcfc #000000 #000000;
#X obj 344 116 + 1;
#X obj 344 95 else/count;
#X obj 344 74 metro 5000;
#X obj 344 340 spigot;
#X obj 371 301 r pressedkey;
#X obj 371 322 expr if($f1 != 4 \, 0 \, 1);
#X obj 173 216 s volumegeralrecita;
#X obj 173 132 line 1;
#X obj 203 173 nbx 5 14 -1e+37 1e+37 0 0 empty empty empty 0 -8 0 8 #fcfcfc #000000 #000000 0 256;
#X msg 173 95 0 \, 0.01 25000;
#X connect 0 0 3 0;
#X connect 2 0 17 0;
#X connect 3 1 9 0;
#X connect 3 2 7 0;
#X connect 4 0 6 0;
#X connect 5 0 2 0;
#X connect 6 0 5 0;
#X connect 7 0 16 0;
#X connect 8 0 3 0;
#X connect 9 0 6 0;
#X connect 9 0 23 0;
#X connect 10 0 4 0;
#X connect 10 1 4 1;
#X connect 11 0 12 0;
#X connect 12 0 10 0;
#X connect 13 0 15 0;
#X connect 14 0 11 0;
#X connect 15 0 14 0;
#X connect 16 0 15 0;
#X connect 17 0 1 0;
#X connect 18 0 19 0;
#X connect 19 0 17 1;
#X connect 21 0 20 0;
#X connect 21 0 22 0;
#X connect 23 0 21 0;
#X restore 12 188 pd RECITAR;
#N canvas 56 16 1738 804 GESTURES_D 0;
#X obj 2 2 inlet;
#X msg 2 170 1;
#X msg 2 51 1;
#X obj 3 362 s facaGesto;
#X obj 169 278 s tupletTimeLento;
#X text 166 322 Lembrar de desligar tudo isso quando outro tiver fazer;
#X obj 2 239 spigot;
#X obj 169 241 spigot;
#X obj 2 151 metro 400;
#X obj 77 104 line;
#X obj 169 56 t b b;
#X obj 191 96 line;
#X obj 169 156 line;
#X obj 169 177 pack f f, f 15;
#X obj 77 150 sel 6000;
#X msg 77 176 0;
#X obj 66 278 metro 4000;
#X obj 66 299 expr random(6000 \, 10000);
#X msg 103 176 1;
#X msg 66 320 bang;
#X obj 345 189 r pressedkey;
#X obj 389 126 s gestosExtra;
#X msg 389 56 1;
#X obj 313 56 delay 50 1 sec;
#X msg 313 77 0;
#X obj 345 231 sel 0;
#X msg 345 252 stop;
#X obj 462 126 s gestosExtraAmp;
#X msg 191 75 100 \, 30000 60000;
#X msg 169 135 150 \, 25000 60000;
#X obj 579 320 s graoSrLen;
#X obj 579 253 pack f f;
#X obj 594 62 t b b;
#X obj 616 102 line, f 8;
#X obj 594 195 line, f 10;
#X obj 579 231 f;
#X obj 579 286 spigot;
#X obj 549 126 metro 500;
#X msg 616 81 3000 \, 20000 30000;
#X msg 594 177 8000 \, 15000 30000;
#X obj 744 128 s volumegeralgranulador;
#X obj 2 30 t b b b b b b, f 156;
#X obj 756 105 line;
#X msg 747 73 0 \, 0.3 25000;
#X obj 345 210 expr if($f1 != 4 \, 0 \, 1);
#X msg 77 69 6000 \, 32000 60000;
#X obj 22 297 bng 15 250 50 0 empty empty empty 0 -8 0 8 #fcfcfc #000000 #000000;
#X connect 0 0 41 0;
#X connect 1 0 6 0;
#X connect 2 0 8 0;
#X connect 6 0 3 0;
#X connect 6 0 46 0;
#X connect 7 0 4 0;
#X connect 8 0 1 0;
#X connect 9 0 8 1;
#X connect 9 0 14 0;
#X connect 10 0 29 0;
#X connect 10 1 28 0;
#X connect 11 0 13 1;
#X connect 12 0 13 0;
#X connect 13 0 7 0;
#X connect 14 0 15 0;
#X connect 14 0 18 0;
#X connect 15 0 8 0;
#X connect 16 0 17 0;
#X connect 17 0 16 1;
#X connect 17 0 19 0;
#X connect 18 0 16 0;
#X connect 19 0 6 0;
#X connect 20 0 44 0;
#X connect 22 0 21 0;
#X connect 22 0 27 0;
#X connect 22 0 37 0;
#X connect 23 0 24 0;
#X connect 24 0 27 0;
#X connect 25 0 26 0;
#X connect 26 0 23 0;
#X connect 28 0 11 0;
#X connect 29 0 12 0;
#X connect 31 0 36 0;
#X connect 32 0 39 0;
#X connect 32 1 38 0;
#X connect 33 0 31 1;
#X connect 34 0 35 1;
#X connect 35 0 31 0;
#X connect 36 0 30 0;
#X connect 37 0 35 0;
#X connect 38 0 33 0;
#X connect 39 0 34 0;
#X connect 41 0 2 0;
#X connect 41 1 45 0;
#X connect 41 2 10 0;
#X connect 41 3 22 0;
#X connect 41 3 23 0;
#X connect 41 4 32 0;
#X connect 41 5 43 0;
#X connect 42 0 40 0;
#X connect 43 0 42 0;
#X connect 44 0 7 1;
#X connect 44 0 6 1;
#X connect 44 0 25 0;
#X connect 44 0 36 1;
#X connect 45 0 9 0;
#X restore 315 128 pd GESTURES_D;
#X obj 475 121 throw~ volumegeral;
#X obj 399 27 r pressedkey;
#X obj 537 44 sig~ 1;
#X obj 399 46 expr if($f1 != 4 \, 0 \, 1);
#X obj 475 91 else/xgate~ 1;
#X connect 0 0 6 0;
#X connect 2 0 3 0;
#X connect 3 0 2 1;
#X connect 3 0 5 0;
#X connect 5 0 4 0;
#X connect 6 0 17 0;
#X connect 6 1 1 0;
#X connect 6 3 9 0;
#X connect 6 4 2 0;
#X connect 6 5 18 0;
#X connect 7 0 8 0;
#X connect 8 0 5 1;
#X connect 8 0 14 1;
#X connect 9 0 16 0;
#X connect 9 1 15 0;
#X connect 10 0 12 1;
#X connect 11 0 12 0;
#X connect 12 0 14 0;
#X connect 14 0 13 0;
#X connect 15 0 10 0;
#X connect 16 0 11 0;
#X connect 20 0 22 0;
#X connect 21 0 23 0;
#X connect 22 0 23 0;
#X connect 23 0 19 0;
#X restore 677 158 pd D;
#X f 5;
#X obj 587 83 print RECEIVED_KEY;
#X obj 580 103 nbx 5 14 -1e+37 1e+37 0 0 empty empty empty 0 -8 0 8 #fcfcfc #000000 #000000 0 256;
#X obj 633 38 s pressedkey;
#X obj 633 18 nbx 5 14 -1e+37 1e+37 0 0 empty empty empty 0 -8 0 8 #fcfcfc #000000 #000000 0 256;
#N canvas 228 184 884 459 out1 0;
#X obj 81 38 catch~ dac1;
#X obj 143 38 catch~ dac2;
#X obj 81 121 *~;
#X obj 143 120 *~;
#X obj 81 188 outlet~;
#X obj 143 187 outlet~;
#X obj 21 157 else/vu~;
#X obj 21 178 s out1;
#X obj 185 166 else/vu~;
#X obj 185 187 s out2;
#X obj 309 7 inlet;
#X obj 309 49 sig~;
#X msg 309 28 1;
#X obj 224 82 catch~ volumegeral;
#X obj 224 124 nbx 5 14 -1e+37 1e+37 0 0 empty empty empty 0 -8 0 8 #fcfcfc #000000 #000000 0 256;
#X obj 224 103 else/sig2float~;
#X connect 0 0 2 0;
#X connect 1 0 3 0;
#X connect 2 0 4 0;
#X connect 2 0 6 0;
#X connect 3 0 5 0;
#X connect 3 0 8 0;
#X connect 6 0 7 0;
#X connect 8 0 9 0;
#X connect 10 0 12 0;
#X connect 12 0 11 0;
#X connect 13 0 3 1;
#X connect 13 0 2 1;
#X connect 13 0 15 0;
#X connect 15 0 14 0;
#X restore 654 203 pd out1;
#X f 13;
#X obj 661 222 vu 8 80 out1 empty -1 -8 0 8 #404040 #000000 0 0;
#X obj 707 222 vu 8 80 out2 empty -1 -8 0 8 #404040 #000000 0 0;
#X obj 700 18 cyclone/click~;
#X obj 700 38 dac~;
#X obj 700 1 bng 15 250 50 0 empty empty empty 0 -8 0 8 #fcfcfc #000000 #000000;
#X obj 654 186 bng 15 250 50 0 empty empty empty 0 -8 0 8 #fcfcfc #000000 #000000;
#X obj 275 74 r gestosExtraAmp;
#N canvas 779 32 909 796 POEMAS-RECITAS 0;
#X obj 4 21 bng 15 250 50 0 empty empty empty 0 -8 0 8 #fcfcfc #000000 #000000;
#X obj 4 64 + 1;
#X obj 4 105 soundfiler;
#X obj 265 39 array define audio3 307199;
#X obj 265 21 array define audio2 364543;
#X obj 265 3 array define audio1 249855;
#X obj 4 2 loadbang;
#X obj 265 58 array define audio4 307199;
#X obj 265 76 array define audio5 232447;
#X obj 265 95 array define audio6 259071;
#X obj 265 113 array define audio7 335871;
#X obj 265 131 array define audio8 222207;
#X obj 265 150 array define audio9 208895;
#X obj 265 168 array define audio10 382975;
#X obj 265 186 array define audio11 276479;
#X obj 265 204 array define audio12 249855;
#X obj 265 222 array define audio13 1.61537e+06;
#X obj 265 240 array define audio14 982727;
#X obj 265 258 array define audio15 389447;
#X obj 4 43 else/loop 20;
#X obj 265 277 array define audio16 2.26918e+06;
#X obj 265 295 array define audio17 3.4048e+06;
#X obj 265 313 array define audio18 4.67251e+06;
#X obj 265 332 array define audio19 1.11309e+06;
#X obj 265 351 array define audio20 1.05363e+06;
#X msg 4 85 read Audios/audio\$1-best.wav audio\$1;
#X connect 0 0 19 0;
#X connect 1 0 25 0;
#X connect 6 0 0 0;
#X connect 19 0 1 0;
#X connect 25 0 2 0;
#X restore 4 4 pd POEMAS-RECITAS;
#X obj 580 139 sel 1 2 3 4 5, f 33;
#N canvas 558 79 1055 848 E 0;
#X obj 12 10 inlet;
#N canvas 249 26 1339 859 CANVAS 0;
#X msg 15 191 1;
#X obj 121 120 line, f 11;
#X obj 15 7 inlet;
#X obj 204 381 s ui_draw;
#X obj 226 217 expr 1000 / $f1;
#X obj 204 352 spigot;
#X obj 204 301 metro;
#X obj 311 259 t f f;
#X obj 226 238 nbx 5 14 -1e+37 1e+37 0 0 empty empty empty 0 -8 0 8 #fcfcfc #000000 #000000 0 256;
#X msg 204 322 1;
#X obj 226 173 line, f 8;
#X obj 226 194 nbx 5 14 -1e+37 1e+37 0 0 empty empty empty 0 -8 0 8 #fcfcfc #000000 #000000 0 256;
#X obj 15 293 spigot;
#X obj 332 173 s ui_showScore;
#X obj 332 70 t b b, f 21;
#X msg 332 91 1;
#X obj 332 112 metro 7000;
#X obj 332 133 t b b, f 19;
#X msg 332 154 1;
#X obj 424 193 s ui_notename;
#X obj 424 173 expr random(48 \, 72);
#X obj 311 217 r pressedkey;
#X msg 15 54 1;
#X obj 15 172 metro 5000;
#X obj 311 295 nbx 5 14 -1e+37 1e+37 0 0 empty empty empty 0 -8 0 8 #fcfcfc #000000 #000000 0 256;
#X obj 15 370 s ui_randomform;
#X msg 226 83 30 \, 0.3 60000;
#X obj 15 33 t b b b b b, f 108;
#X obj 552 117 line, f 12;
#X obj 552 138 s ui_randomlettercolor;
#X obj 486 75 loadbang;
#X msg 486 96 150;
#X msg 552 96 240 \, 255 60000;
#X msg 121 92 5000 \, 10 60000;
#X obj 311 238 expr if($f1 != 5 \, 0 \, 1);
#X msg 15 314 1;
#X connect 0 0 12 0;
#X connect 1 0 23 1;
#X connect 2 0 27 0;
#X connect 4 0 8 0;
#X connect 5 0 3 0;
#X connect 6 0 9 0;
#X connect 7 0 5 1;
#X connect 7 0 12 1;
#X connect 7 0 24 0;
#X connect 7 1 6 0;
#X connect 8 0 6 1;
#X connect 9 0 5 0;
#X connect 10 0 11 0;
#X connect 11 0 4 0;
#X connect 12 0 35 0;
#X connect 14 0 15 0;
#X connect 15 0 16 0;
#X connect 16 0 17 0;
#X connect 17 0 18 0;
#X connect 17 1 20 0;
#X connect 18 0 13 0;
#X connect 20 0 19 0;
#X connect 21 0 34 0;
#X connect 22 0 23 0;
#X connect 23 0 0 0;
#X connect 26 0 10 0;
#X connect 27 0 22 0;
#X connect 27 1 33 0;
#X connect 27 2 26 0;
#X connect 27 3 14 0;
#X connect 27 4 32 0;
#X connect 28 0 29 0;
#X connect 30 0 31 0;
#X connect 31 0 29 0;
#X connect 32 0 28 0;
#X connect 33 0 1 0;
#X connect 34 0 7 0;
#X connect 35 0 25 0;
#X restore 53 104 pd CANVAS;
#X obj 423 158 s espectro;
#X obj 321 130 s tupletTimeLento;
#X obj 12 80 t b b b b b b, f 42;
#X msg 321 111 300 600;
#N canvas 652 80 1023 851 RECITAR 0;
#X obj 2 2 inlet;
#X obj 344 371 s facarecita;
#X obj 344 279 clone 10 Libs/delay-clone;
#X obj 2 27 t b b b, f 69;
#X obj 344 219 else/loop 10;
#X msg 344 261 next \$1;
#X obj 344 240 expr random(100 \, 30000);
#X obj 2 95 line;
#X obj 2 149 s volumerecita;
#X msg 344 54 1;
#X obj 49 0 bng 15 250 50 0 empty empty empty 0 -8 0 8 #fcfcfc #000000 #000000;
#X obj 173 75 bng 15 250 50 0 empty empty empty 0 -8 0 8 #fcfcfc #000000 #000000;
#X obj 17 124 nbx 5 14 -1e+37 1e+37 0 0 empty empty empty 0 -8 0 8 #fcfcfc #000000 #000000 0 256;
#X obj 344 191 t b f, f 12;
#X obj 344 138 expr if($f1 > 10 \, 10 \, $f1);
#X obj 344 159 nbx 5 14 -1e+37 1e+37 0 0 empty empty empty 0 -8 0 8 #fcfcfc #000000 #000000 0 256;
#X obj 310 73 bng 15 250 50 0 empty empty empty 0 -8 0 8 #fcfcfc #000000 #000000;
#X obj 344 116 + 1;
#X obj 344 95 else/count;
#X obj 344 74 metro 5000;
#X obj 344 340 spigot;
#X obj 371 301 r pressedkey;
#X obj 371 322 expr if($f1 != 5 \, 0 \, 1);
#X obj 277 379 bng 15 250 50 0 empty empty empty 0 -8 0 8 #fcfcfc #000000 #000000;
#X msg 2 54 0.2 \, 0.001 60000;
#X obj 102 312 s volumegeralrecita;
#X obj 161 204 line;
#X msg 161 183 0.01 \, 0.005 60000;
#X connect 0 0 3 0;
#X connect 2 0 20 0;
#X connect 3 0 24 0;
#X connect 3 1 11 0;
#X connect 3 2 9 0;
#X connect 4 0 6 0;
#X connect 5 0 2 0;
#X connect 6 0 5 0;
#X connect 7 0 8 0;
#X connect 7 0 12 0;
#X connect 9 0 19 0;
#X connect 10 0 3 0;
#X connect 11 0 6 0;
#X connect 11 0 27 0;
#X connect 13 0 4 0;
#X connect 13 1 4 1;
#X connect 14 0 15 0;
#X connect 15 0 13 0;
#X connect 16 0 18 0;
#X connect 17 0 14 0;
#X connect 18 0 17 0;
#X connect 19 0 18 0;
#X connect 20 0 1 0;
#X connect 20 0 23 0;
#X connect 21 0 22 0;
#X connect 22 0 20 1;
#X connect 24 0 7 0;
#X connect 26 0 25 0;
#X connect 27 0 26 0;
#X restore 12 165 pd RECITAR;
#X obj 136 267 vline~;
#N canvas 108 32 1611 804 GESTURES 0;
#X obj 2 2 inlet;
#X msg 2 116 1;
#X obj 54 74 line;
#X msg 2 51 1;
#X obj 2 97 metro 10000;
#X obj 169 54 t b b;
#X obj 191 94 line;
#X obj 169 151 line;
#X msg 169 133 150 \, 8000 60000;
#X obj 2 327 s facaGesto;
#X obj 169 190 pack f f, f 15;
#X obj 169 278 s tupletTimeLento;
#X text 166 322 Lembrar de desligar tudo isso quando outro tiver fazer;
#X obj 2 239 spigot;
#X obj 169 241 spigot;
#X obj 406 147 r pressedkey;
#X obj 328 264 s filtroCutOff;
#X obj 328 234 spigot;
#X obj 344 86 line;
#X obj 157 170 f;
#X obj 83 122 metro 500;
#X obj 402 95 s graoSrLen;
#X obj 578 320 s graoSrLen;
#X obj 695 169 loadbang;
#X msg 695 199 400 900;
#X obj 578 195 pack f f;
#X obj 2 30 t b b b b b, f 92;
#X obj 595 67 t b b;
#X obj 617 107 line;
#X obj 595 143 line;
#X obj 583 162 f;
#X obj 55 2 bng 15 250 50 0 empty empty empty 0 -8 0 8 #fcfcfc #000000 #000000;
#X obj 406 166 expr if($f1 != 5 \, 0 \, 1);
#X msg 54 54 10000 \, 400 10000;
#X msg 191 73 100 \, 3000 10000;
#X msg 344 61 200 \, 4000 1000;
#X msg 595 125 150 \, 800 1000;
#X msg 617 86 100 \, 300 1000;
#X connect 0 0 26 0;
#X connect 1 0 13 0;
#X connect 2 0 4 1;
#X connect 3 0 4 0;
#X connect 3 0 20 0;
#X connect 4 0 1 0;
#X connect 5 0 8 0;
#X connect 5 1 34 0;
#X connect 6 0 10 1;
#X connect 7 0 19 1;
#X connect 8 0 7 0;
#X connect 10 0 14 0;
#X connect 13 0 9 0;
#X connect 14 0 11 0;
#X connect 15 0 32 0;
#X connect 17 0 16 0;
#X connect 18 0 17 0;
#X connect 19 0 10 0;
#X connect 20 0 19 0;
#X connect 20 0 30 0;
#X connect 23 0 24 0;
#X connect 24 0 22 0;
#X connect 25 0 22 0;
#X connect 26 0 3 0;
#X connect 26 1 33 0;
#X connect 26 2 5 0;
#X connect 26 3 35 0;
#X connect 26 4 27 0;
#X connect 27 0 36 0;
#X connect 27 1 37 0;
#X connect 28 0 25 1;
#X connect 29 0 30 1;
#X connect 30 0 25 0;
#X connect 31 0 26 0;
#X connect 32 0 14 1;
#X connect 32 0 13 1;
#X connect 32 0 17 1;
#X connect 33 0 2 0;
#X connect 34 0 6 0;
#X connect 35 0 18 0;
#X connect 36 0 29 0;
#X connect 37 0 28 0;
#X restore 95 144 pd GESTURES;
#X obj 127 350 throw~ volumegeral;
#X obj 24 350 s ui_clearallcanvas;
#X obj 320 200 r pressedkey;
#X obj 320 219 expr if($f1 != 5 \, 0 \, 1);
#X msg 24 225 1;
#X msg 136 221 1 \, 0 60000;
#X msg 245 183 1;
#X obj 136 182 delay 5000 1 msec;
#X obj 295 270 delay 60000 1 msec;
#X msg 295 291 255 \, 0 15000;
#X obj 295 312 line;
#X obj 295 333 s ui_backgroundfinish;
#X msg 418 271 255;
#X obj 419 247 loadbang;
#X obj 127 321 else/xgate~ 1;
#X connect 0 0 4 0;
#X connect 4 0 6 0;
#X connect 4 1 1 0;
#X connect 4 2 8 0;
#X connect 4 3 16 0;
#X connect 4 4 15 0;
#X connect 4 5 5 0;
#X connect 5 0 3 0;
#X connect 7 0 23 0;
#X connect 11 0 12 0;
#X connect 12 0 23 0;
#X connect 13 0 10 0;
#X connect 14 0 7 0;
#X connect 15 0 7 0;
#X connect 16 0 14 0;
#X connect 16 0 13 0;
#X connect 16 0 17 0;
#X connect 17 0 18 0;
#X connect 18 0 19 0;
#X connect 19 0 20 0;
#X connect 21 0 20 0;
#X connect 22 0 21 0;
#X connect 23 0 9 0;
#X restore 710 158 pd E;
#X f 5;
#X obj 347 197 sel 1, f 19;
#X listbox 188 128 12 0 0 0 - - - 0;
#N canvas 631 217 817 737 RECITA 0;
#X obj 4 216 throw~ dac1;
#X obj 101 216 throw~ dac2;
#X obj 4 26 b;
#X obj 4 5 r facarecita;
#X obj 4 46 bng 15 250 50 0 empty empty empty 0 -8 0 8 #fcfcfc #000000 #000000;
#X msg 4 99 list audio\$1;
#X msg 4 131 next set \$1;
#X obj 4 186 *~, f 6;
#X obj 101 185 *~, f 6;
#X obj 4 151 clone Libs/recita 15;
#X obj 128 151 r volumegeralrecita;
#X obj 4 67 expr random(1 \, 20);
#X obj 140 185 nbx 5 14 -1e+37 1e+37 0 0 empty empty empty 0 -8 0 8 #fcfcfc #000000 #000000 0 256;
#X connect 2 0 4 0;
#X connect 3 0 2 0;
#X connect 4 0 11 0;
#X connect 5 0 6 0;
#X connect 6 0 9 0;
#X connect 7 0 0 0;
#X connect 8 0 1 0;
#X connect 9 0 7 0;
#X connect 9 1 8 0;
#X connect 10 0 7 1;
#X connect 10 0 8 1;
#X connect 10 0 12 0;
#X connect 11 0 5 0;
#X restore 198 239 pd RECITA;
#N canvas 889 59 773 852 control 0;
#X obj 20 92 else/count;
#X obj 20 2 inlet;
#X obj 20 65 spigot, f 7;
#X obj 52 2 r gestosExtraAmp;
#X obj 42 226 s gestosExtraAmp;
#X msg 42 207 0;
#X obj 20 188 t b b;
#X obj 20 340 spigot;
#X obj 47 297 r pressedkey;
#X obj 20 397 s gestosExtraAmp;
#X msg 20 370 1;
#X obj 20 113 nbx 5 14 -1e+37 1e+37 0 0 empty empty empty 0 -8 0 8 #fcfcfc #000000 #000000 0 256;
#X obj 20 266 delay 3000 1 msec, f 41;
#X obj 20 167 sel 3;
#X obj 20 132 % 4;
#X obj 47 318 expr if($f1 == 3 || $f1 == 4 \, 1 \, 0);
#X obj 222 206 r respostadeamplitude;
#X obj 236 265 nbx 5 14 -1e+37 1e+37 0 0 empty empty empty 0 -8 0 8 #fcfcfc #000000 #000000 0 256;
#X connect 0 0 11 0;
#X connect 1 0 2 0;
#X connect 2 0 0 0;
#X connect 3 0 2 1;
#X connect 5 0 4 0;
#X connect 6 0 12 0;
#X connect 6 1 5 0;
#X connect 7 0 10 0;
#X connect 8 0 15 0;
#X connect 10 0 9 0;
#X connect 11 0 14 0;
#X connect 12 0 7 0;
#X connect 13 0 6 0;
#X connect 14 0 13 0;
#X connect 15 0 7 1;
#X connect 16 0 12 1;
#X connect 16 0 17 0;
#X restore 401 233 pd control;
#X connect 0 0 35 0;
#X connect 0 0 37 0;
#X connect 1 0 28 0;
#X connect 1 1 62 0;
#X connect 4 0 3 0;
#X connect 5 0 61 0;
#X connect 6 0 10 0;
#X connect 7 0 8 0;
#X connect 8 0 6 1;
#X connect 9 0 6 1;
#X connect 10 0 5 0;
#X connect 11 0 46 0;
#X connect 11 0 47 0;
#X connect 16 0 13 0;
#X connect 18 0 10 1;
#X connect 25 0 13 0;
#X connect 29 0 14 0;
#X connect 33 0 6 0;
#X connect 35 0 34 0;
#X connect 38 0 1 0;
#X connect 47 0 59 0;
#X connect 49 0 48 0;
#X connect 50 0 2 0;
#X connect 50 1 2 1;
#X connect 53 0 54 0;
#X connect 53 0 54 1;
#X connect 55 0 53 0;
#X connect 56 0 50 0;
#X connect 57 0 18 0;
#X connect 59 0 42 0;
#X connect 59 1 43 0;
#X connect 59 2 44 0;
#X connect 59 3 45 0;
#X connect 59 4 60 0;
#X connect 61 0 26 0;
#X connect 61 0 64 0;
