#N canvas 655 36 782 758 8;
#X obj 3 311 else/plaits~ -model 11 -midi -trigger;
#X obj 3 345 dac~, f 19;
#N canvas 99 -1 735 934 quialteras 0;
#X obj 41 92 else/loop;
#X obj 6 9 inlet;
#X obj 41 158 + 3;
#X obj 40 205 else/loop;
#X obj 40 226 bng 15 250 50 0 empty empty empty 0 -8 0 8 #fcfcfc #000000 #000000;
#X msg 132 177 0;
#X obj 40 278 /, f 14;
#X obj 41 179 t f f, f 17;
#X obj 41 117 t b b b, f 36;
#X obj 40 317 text insert quialtera;
#X msg 258 127 -1;
#X obj 258 163 text delete quialtera;
#X obj 247 8 text define quialtera;
#X msg 218 162 0;
#X msg 6 394 auto;
#X obj 6 441 outlet;
#X msg 63 391 line 0;
#X msg 40 297 \$1 note1 bang;
#X obj 6 420 text sequence quialtera -g;
#X obj 6 369 t b b;
#X obj 41 73 t f b, f 59;
#X obj 6 30 t b f, f 7;
#X msg 40 246 500;
#X obj 41 137 random 3;
#X connect 0 0 8 0;
#X connect 1 0 21 0;
#X connect 2 0 7 0;
#X connect 3 0 4 0;
#X connect 4 0 22 0;
#X connect 6 0 17 0;
#X connect 7 0 3 0;
#X connect 7 1 6 1;
#X connect 8 0 23 0;
#X connect 8 1 5 0;
#X connect 8 2 13 0;
#X connect 10 0 11 0;
#X connect 14 0 18 0;
#X connect 16 0 18 0;
#X connect 17 0 9 0;
#X connect 18 0 15 0;
#X connect 19 0 14 0;
#X connect 19 1 16 0;
#X connect 20 0 0 0;
#X connect 20 1 10 0;
#X connect 21 0 19 0;
#X connect 21 1 20 0;
#X connect 22 0 6 0;
#X connect 23 0 2 0;
#X restore 9 120 pd quialteras;
#X obj 9 141 bng 15 250 50 0 empty empty empty 0 -8 0 8 #fcfcfc #000000 #000000;
#X obj 3 231 r note1;
#X obj 31 270 random 36;
#X obj 3 252 t b b;
#X obj 31 291 + 48;
#X msg 9 101 2;
#X obj 9 8 adc~ 1;
#N canvas 485 -19 1206 890 pitch 0;
#X obj 4 132 float;
#X obj 4 105 expr if($f1 > ($f2 + 0.5) || $f1 < ($f2 - 0.5) \, $f1 \, $f2);
#X obj 4 175 nbx 5 14 -1e+37 1e+37 0 0 empty empty empty 0 -8 0 8 #fcfcfc #000000 #000000 0 256;
#X obj 4 194 change;
#X obj 23 374 float;
#X obj 45 260 t f b b, f 32;
#X msg 202 292 stop;
#X obj 4 260 t b;
#X msg 4 281 stop;
#X obj 23 414 outlet;
#X obj 126 174 inlet;
#X obj 4 215 + 0, f 25;
#X obj 23 395 change;
#X obj 4 85 spigot, f 7;
#X obj 4 5 inlet~;
#X obj 4 154 cyclone/round 1 @nearest 1;
#X obj 446 45 s PEAKS;
#X obj 4 233 else/spread 48 84;
#X obj 36 67 expr if($f1 < 48 || $f1 > 80 \, 0 \, 1);
#X obj 123 324 delay 400 1 msec;
#X obj 4 46 t f f f, f 13;
#X obj 4 25 sigmund~ -npts 2048 -hop 512 -npeak 9 -minpower 60 -quality 0.7 pitch peaks, f 89;
#X connect 0 0 1 1;
#X connect 0 0 15 0;
#X connect 1 0 0 0;
#X connect 2 0 3 0;
#X connect 3 0 11 0;
#X connect 4 0 12 0;
#X connect 5 0 4 1;
#X connect 5 1 19 0;
#X connect 5 2 6 0;
#X connect 6 0 19 0;
#X connect 7 0 8 0;
#X connect 8 0 19 0;
#X connect 10 0 11 1;
#X connect 11 0 17 0;
#X connect 12 0 9 0;
#X connect 13 0 1 0;
#X connect 14 0 21 0;
#X connect 15 0 2 0;
#X connect 17 0 7 0;
#X connect 17 1 5 0;
#X connect 17 2 7 0;
#X connect 18 0 13 1;
#X connect 19 0 4 0;
#X connect 20 0 13 0;
#X connect 20 1 18 0;
#X connect 21 0 20 0;
#X connect 21 1 16 0;
#X restore 9 51 pd pitch;
#X obj 46 30 nbx 5 14 -1e+37 1e+37 0 0 empty empty empty 0 -8 0 8 #fcfcfc #000000 #000000 0 256;
#X obj 9 72 sel 60 67, f 38;
#N canvas 99 -1 1100 934 quialteras 0;
#X obj 41 92 else/loop;
#X obj 6 9 inlet;
#X obj 41 158 + 3;
#X obj 40 205 else/loop;
#X obj 40 226 bng 15 250 50 0 empty empty empty 0 -8 0 8 #fcfcfc #000000 #000000;
#X msg 132 177 0;
#X obj 40 278 /, f 14;
#X obj 41 179 t f f, f 17;
#X obj 41 117 t b b b, f 36;
#X msg 258 127 -1;
#X msg 218 162 0;
#X msg 6 394 auto;
#X obj 6 441 outlet;
#X msg 63 391 line 0;
#X obj 6 369 t b b;
#X obj 41 73 t f b, f 59;
#X obj 6 30 t b f, f 7;
#X obj 258 163 text delete quialtera2;
#X obj 40 317 text insert quialtera2;
#X obj 6 420 text sequence quialtera2 -g;
#X obj 247 8 text define quialtera2;
#X obj 41 137 random 2;
#X msg 40 246 300;
#X msg 40 297 \$1 note2 bang;
#X connect 0 0 8 0;
#X connect 1 0 16 0;
#X connect 2 0 7 0;
#X connect 3 0 4 0;
#X connect 4 0 22 0;
#X connect 6 0 23 0;
#X connect 7 0 3 0;
#X connect 7 1 6 1;
#X connect 8 0 21 0;
#X connect 8 1 5 0;
#X connect 8 2 10 0;
#X connect 9 0 17 0;
#X connect 11 0 19 0;
#X connect 13 0 19 0;
#X connect 14 0 11 0;
#X connect 14 1 13 0;
#X connect 15 0 0 0;
#X connect 15 1 9 0;
#X connect 16 0 14 0;
#X connect 16 1 15 0;
#X connect 19 0 12 0;
#X connect 21 0 2 0;
#X connect 22 0 6 0;
#X connect 23 0 18 0;
#X restore 102 119 pd quialteras;
#X obj 102 140 bng 15 250 50 0 empty empty empty 0 -8 0 8 #fcfcfc #000000 #000000;
#X msg 102 100 5;
#X obj 200 311 else/plaits~ -model 11 -midi -trigger;
#X obj 200 345 dac~, f 19;
#X obj 228 270 random 36;
#X obj 200 252 t b b;
#X obj 228 291 + 48;
#X obj 200 231 r note2;
#X connect 0 0 1 0;
#X connect 0 1 1 1;
#X connect 2 0 3 0;
#X connect 4 0 6 0;
#X connect 5 0 7 0;
#X connect 6 0 0 0;
#X connect 6 1 5 0;
#X connect 7 0 0 0;
#X connect 8 0 2 0;
#X connect 9 0 10 0;
#X connect 10 0 12 0;
#X connect 11 0 10 1;
#X connect 12 0 8 0;
#X connect 12 1 15 0;
#X connect 13 0 14 0;
#X connect 15 0 13 0;
#X connect 16 0 17 0;
#X connect 16 1 17 1;
#X connect 18 0 20 0;
#X connect 19 0 16 0;
#X connect 19 1 18 0;
#X connect 20 0 16 0;
#X connect 21 0 19 0;
