#N canvas 122 -7 1199 859 8;
#X obj 9 8 adc~ 1;
#N canvas 485 -19 1206 890 pitch 0;
#X obj 4 132 float;
#X obj 4 105 expr if($f1 > ($f2 + 0.5) || $f1 < ($f2 - 0.5) \, $f1 \, $f2);
#X obj 4 175 nbx 5 14 -1e+37 1e+37 0 0 empty empty empty 0 -8 0 8 #fcfcfc #000000 #000000 0 256;
#X obj 4 194 change;
#X obj 23 374 float;
#X obj 45 260 t f b b, f 32;
#X msg 202 292 stop;
#X obj 4 260 t b;
#X msg 4 281 stop;
#X obj 23 414 outlet;
#X obj 126 174 inlet;
#X obj 4 215 + 0, f 25;
#X obj 23 395 change;
#X obj 4 85 spigot, f 7;
#X obj 4 5 inlet~;
#X obj 4 154 cyclone/round 1 @nearest 1;
#X obj 446 45 s PEAKS;
#X obj 4 233 else/spread 48 84;
#X obj 36 67 expr if($f1 < 48 || $f1 > 80 \, 0 \, 1);
#X obj 4 46 t f f f, f 13;
#X obj 123 324 delay 50 1 msec;
#X obj 4 25 sigmund~ -npts 2048 -hop 512 -npeak 15 -minpower 50 -quality 0.8 pitch peaks, f 89;
#X connect 0 0 1 1;
#X connect 0 0 15 0;
#X connect 1 0 0 0;
#X connect 2 0 3 0;
#X connect 3 0 11 0;
#X connect 4 0 12 0;
#X connect 5 0 4 1;
#X connect 5 1 20 0;
#X connect 5 2 6 0;
#X connect 6 0 20 0;
#X connect 7 0 8 0;
#X connect 8 0 20 0;
#X connect 10 0 11 1;
#X connect 11 0 17 0;
#X connect 12 0 9 0;
#X connect 13 0 1 0;
#X connect 14 0 21 0;
#X connect 15 0 2 0;
#X connect 17 0 7 0;
#X connect 17 1 5 0;
#X connect 17 2 7 0;
#X connect 18 0 13 1;
#X connect 19 0 13 0;
#X connect 19 1 18 0;
#X connect 20 0 4 0;
#X connect 21 0 19 0;
#X connect 21 1 16 0;
#X restore 9 50 pd pitch;
#X obj 46 29 nbx 5 14 -1e+37 1e+37 0 0 empty empty empty 0 -8 0 8 #fcfcfc #000000 #000000 0 256;
#X obj 9 71 nbx 5 14 -1e+37 1e+37 0 0 empty empty empty 0 -8 0 8 #fcfcfc #000000 #000000 0 256;
#X obj 150 285 else/giga.rev~;
#X obj 97 32 r PEAKS;
#X msg 97 231 sigmund \$1 \$2 \$3 \$4 \$5;
#X obj 97 144 spigot;
#X msg 188 94 1;
#N canvas 305 45 1440 820 freeze 1;
#X obj 6 7 inlet;
#X obj 6 36 route go sigmund switch, f 113;
#X obj 7 136 route 0;
#X obj 78 136 route 1;
#X obj 150 136 route 2;
#X obj 223 136 route 3;
#X obj 6 271 outlet~;
#N canvas 123 129 977 669 marimba 0;
#X floatatom 32 217 5 0 0 0 - - - 0;
#X floatatom 78 217 5 0 0 0 - - - 0;
#X floatatom 125 217 5 0 0 0 - - - 0;
#X floatatom 171 218 5 0 0 0 - - - 0;
#X floatatom 218 183 5 0 0 0 - - - 0;
#X obj 32 183 unpack f f f f f f, f 47;
#X obj 32 248 percolate/marimba~, f 47;
#X msg 32 66 0.59 0.03 0.3 0 0 \$1;
#X obj 32 15 inlet;
#X obj 32 269 outlet~;
#X msg 151 99 noteon;
#X obj 32 36 t a b, f 49;
#X obj 274 104 quialteras;
#X obj 273 86 + 2;
#X obj 311 24 bng 15 250 50 0 empty empty empty 0 -8 0 8 #fcfcfc #000000 #000000;
#X obj 273 65 random 1;
#X connect 0 0 6 0;
#X connect 1 0 6 1;
#X connect 2 0 6 2;
#X connect 3 0 6 3;
#X connect 4 0 6 4;
#X connect 5 0 0 0;
#X connect 5 1 1 0;
#X connect 5 2 2 0;
#X connect 5 3 3 0;
#X connect 5 4 4 0;
#X connect 5 5 6 5;
#X connect 6 0 9 0;
#X connect 7 0 5 0;
#X connect 8 0 11 0;
#X connect 10 0 6 0;
#X connect 11 0 7 0;
#X connect 11 1 15 0;
#X connect 12 0 10 0;
#X connect 13 0 12 0;
#X connect 14 0 15 0;
#X connect 15 0 13 0;
#X restore 7 160 pd marimba;
#N canvas 123 129 977 669 marimba 0;
#X floatatom 32 217 5 0 0 0 - - - 0;
#X floatatom 78 217 5 0 0 0 - - - 0;
#X floatatom 125 217 5 0 0 0 - - - 0;
#X floatatom 171 218 5 0 0 0 - - - 0;
#X floatatom 218 183 5 0 0 0 - - - 0;
#X obj 32 183 unpack f f f f f f, f 47;
#X obj 32 248 percolate/marimba~, f 47;
#X msg 32 66 0.59 0.03 0.3 0 0 \$1;
#X obj 32 15 inlet;
#X obj 32 269 outlet~;
#X msg 151 99 noteon;
#X obj 32 36 t a b, f 49;
#X obj 274 104 quialteras;
#X obj 273 86 + 2;
#X obj 311 24 bng 15 250 50 0 empty empty empty 0 -8 0 8 #fcfcfc #000000 #000000;
#X obj 273 65 random 1;
#X connect 0 0 6 0;
#X connect 1 0 6 1;
#X connect 2 0 6 2;
#X connect 3 0 6 3;
#X connect 4 0 6 4;
#X connect 5 0 0 0;
#X connect 5 1 1 0;
#X connect 5 2 2 0;
#X connect 5 3 3 0;
#X connect 5 4 4 0;
#X connect 5 5 6 5;
#X connect 6 0 9 0;
#X connect 7 0 5 0;
#X connect 8 0 11 0;
#X connect 10 0 6 0;
#X connect 11 0 7 0;
#X connect 11 1 15 0;
#X connect 12 0 10 0;
#X connect 13 0 12 0;
#X connect 14 0 15 0;
#X connect 15 0 13 0;
#X restore 77 157 pd marimba;
#N canvas 123 129 977 669 marimba 0;
#X floatatom 32 217 5 0 0 0 - - - 0;
#X floatatom 78 217 5 0 0 0 - - - 0;
#X floatatom 125 217 5 0 0 0 - - - 0;
#X floatatom 171 218 5 0 0 0 - - - 0;
#X floatatom 218 183 5 0 0 0 - - - 0;
#X obj 32 183 unpack f f f f f f, f 47;
#X obj 32 248 percolate/marimba~, f 47;
#X msg 32 66 0.59 0.03 0.3 0 0 \$1;
#X obj 32 15 inlet;
#X obj 32 269 outlet~;
#X msg 151 99 noteon;
#X obj 32 36 t a b, f 49;
#X obj 274 104 quialteras;
#X obj 273 86 + 2;
#X obj 311 24 bng 15 250 50 0 empty empty empty 0 -8 0 8 #fcfcfc #000000 #000000;
#X obj 273 65 random 1;
#X connect 0 0 6 0;
#X connect 1 0 6 1;
#X connect 2 0 6 2;
#X connect 3 0 6 3;
#X connect 4 0 6 4;
#X connect 5 0 0 0;
#X connect 5 1 1 0;
#X connect 5 2 2 0;
#X connect 5 3 3 0;
#X connect 5 4 4 0;
#X connect 5 5 6 5;
#X connect 6 0 9 0;
#X connect 7 0 5 0;
#X connect 8 0 11 0;
#X connect 10 0 6 0;
#X connect 11 0 7 0;
#X connect 11 1 15 0;
#X connect 12 0 10 0;
#X connect 13 0 12 0;
#X connect 14 0 15 0;
#X connect 15 0 13 0;
#X restore 135 182 pd marimba;
#N canvas 123 129 977 669 marimba 0;
#X floatatom 32 217 5 0 0 0 - - - 0;
#X floatatom 78 217 5 0 0 0 - - - 0;
#X floatatom 125 217 5 0 0 0 - - - 0;
#X floatatom 171 218 5 0 0 0 - - - 0;
#X floatatom 218 183 5 0 0 0 - - - 0;
#X obj 32 183 unpack f f f f f f, f 47;
#X obj 32 248 percolate/marimba~, f 47;
#X msg 32 66 0.59 0.03 0.3 0 0 \$1;
#X obj 32 15 inlet;
#X obj 32 269 outlet~;
#X msg 151 99 noteon;
#X obj 32 36 t a b, f 49;
#X obj 274 104 quialteras;
#X obj 273 86 + 2;
#X obj 311 24 bng 15 250 50 0 empty empty empty 0 -8 0 8 #fcfcfc #000000 #000000;
#X obj 273 65 random 1;
#X connect 0 0 6 0;
#X connect 1 0 6 1;
#X connect 2 0 6 2;
#X connect 3 0 6 3;
#X connect 4 0 6 4;
#X connect 5 0 0 0;
#X connect 5 1 1 0;
#X connect 5 2 2 0;
#X connect 5 3 3 0;
#X connect 5 4 4 0;
#X connect 5 5 6 5;
#X connect 6 0 9 0;
#X connect 7 0 5 0;
#X connect 8 0 11 0;
#X connect 10 0 6 0;
#X connect 11 0 7 0;
#X connect 11 1 15 0;
#X connect 12 0 10 0;
#X connect 13 0 12 0;
#X connect 14 0 15 0;
#X connect 15 0 13 0;
#X restore 211 189 pd marimba;
#X connect 0 0 1 0;
#X connect 1 1 2 0;
#X connect 1 1 5 0;
#X connect 1 1 4 0;
#X connect 1 1 3 0;
#X connect 2 0 7 0;
#X connect 3 0 8 0;
#X connect 4 0 9 0;
#X connect 5 0 10 0;
#X connect 7 0 6 0;
#X connect 8 0 6 0;
#X connect 9 0 6 0;
#X connect 10 0 6 0;
#X restore 97 253 pd freeze;
#X obj 164 335 *~ 0.4;
#X obj 97 335 *~ 0.4;
#X obj 188 14 bng 25 250 50 0 empty empty empty 0 -8 0 8 #fcfcfc #000000 #000000;
#X obj 97 376 dac~, f 14;
#X obj 188 49 t b b b, f 50;
#X obj 9 90 sel 76;
#X obj 9 111 bng 15 250 50 0 empty empty empty 0 -8 0 8 #fcfcfc #000000 #000000;
#X obj 344 262 sel 14;
#X obj 344 283 bng 15 250 50 0 empty empty empty 0 -8 0 8 #fcfcfc #000000 #000000;
#X msg 344 303 0;
#X obj 97 177 t a a, f 50;
#X obj 344 211 expr if($f1 == 13 \, 14 \, 0);
#X connect 0 0 1 0;
#X connect 1 0 3 0;
#X connect 2 0 1 1;
#X connect 3 0 15 0;
#X connect 4 0 11 0;
#X connect 4 1 10 0;
#X connect 5 0 7 0;
#X connect 6 0 9 0;
#X connect 7 0 20 0;
#X connect 8 0 7 1;
#X connect 9 0 4 0;
#X connect 9 0 11 0;
#X connect 9 0 10 0;
#X connect 10 0 13 1;
#X connect 11 0 13 0;
#X connect 12 0 14 0;
#X connect 14 0 8 0;
#X connect 15 0 16 0;
#X connect 16 0 12 0;
#X connect 17 0 18 0;
#X connect 18 0 19 0;
#X connect 19 0 7 1;
#X connect 20 0 6 0;
#X connect 20 1 21 0;
#X connect 21 0 17 0;
