#N canvas 631 16 1213 961 8;
#X obj 9 5 adc~ 1;
#N canvas 270 8 1206 890 pitch 0;
#X obj 4 132 float;
#X obj 4 105 expr if($f1 > ($f2 + 0.5) || $f1 < ($f2 - 0.5) \, $f1 \, $f2);
#X obj 4 175 nbx 5 14 -1e+37 1e+37 0 0 empty empty empty 0 -8 0 8 #fcfcfc #000000 #000000 0 256;
#X obj 4 194 change;
#X obj 23 374 float;
#X obj 45 260 t f b b, f 32;
#X msg 202 292 stop;
#X obj 4 260 t b;
#X msg 4 281 stop;
#X obj 23 453 outlet;
#X obj 126 174 inlet;
#X obj 4 215 + 0, f 25;
#X obj 23 395 change;
#X obj 4 85 spigot, f 7;
#X obj 4 5 inlet~;
#X obj 4 154 round 1 @nearest 1;
#X obj 446 45 s PEAKS;
#X obj 4 233 spread 48 84;
#X obj 36 67 expr if($f1 < 48 || $f1 > 80 \, 0 \, 1);
#X obj 4 46 t f f f, f 13;
#X obj 4 25 sigmund~ -npts 2048 -hop 256 -npeak 15 -minpower 60 -quality 0.4 pitch peaks, f 89;
#X obj 123 324 delay 500 1 msec;
#X connect 0 0 1 1;
#X connect 0 0 15 0;
#X connect 1 0 0 0;
#X connect 2 0 3 0;
#X connect 3 0 11 0;
#X connect 4 0 12 0;
#X connect 5 0 4 1;
#X connect 5 1 21 0;
#X connect 5 2 6 0;
#X connect 6 0 21 0;
#X connect 7 0 8 0;
#X connect 8 0 21 0;
#X connect 10 0 11 1;
#X connect 11 0 17 0;
#X connect 12 0 9 0;
#X connect 13 0 1 0;
#X connect 14 0 20 0;
#X connect 15 0 2 0;
#X connect 17 0 7 0;
#X connect 17 1 5 0;
#X connect 17 2 7 0;
#X connect 18 0 13 1;
#X connect 19 0 13 0;
#X connect 19 1 18 0;
#X connect 20 0 19 0;
#X connect 20 1 16 0;
#X connect 21 0 4 0;
#X restore 9 104 pd pitch;
#X obj 46 83 nbx 5 14 -1e+37 1e+37 0 0 empty empty empty 0 -8 0 8 #fcfcfc #000000 #000000 0 256;
#X obj 6 341 catch~ dac1;
#X obj 68 341 catch~ dac2;
#X obj 6 462 dac~, f 13;
#X msg 545 447 \; pd dsp \$1;
#X obj 545 411 tgl 25 0 empty empty empty 0 -8 0 8 #fcfcfc #000000 #000000 0 1;
#N canvas 607 32 808 959 process1 0;
#X text 115 378 TEXTURAS;
#N canvas 343 32 1171 971 GRANULADOR 0;
#X obj 4 4 adc~ 1;
#X obj 46 4 r recording;
#X obj 4 65 tabwrite~ recording;
#X obj 106 452 throw~ dac1;
#X obj 398 449 throw~ dac2;
#X obj 434 2 array define recording 96000;
#X obj 236 242 loadbang;
#X obj 434 19 array define grain-env 2048;
#N canvas 567 332 734 532 hanning 0;
#X obj 9 42 hann~;
#X obj 9 188 tabwrite~ grain-env;
#X msg 294 145 1;
#X obj 9 12 sig~ 1;
#X obj 194 91 t b b b;
#X msg 194 166 0;
#X obj 194 6 inlet;
#X obj 106 7 r pd-dsp-started;
#X obj 227 6 loadbang;
#X obj 227 27 del 1000 1 msec;
#X obj 194 68 delay 2048 1 samp;
#X obj 194 145 delay 4096 1 samp;
#X obj 173 201 block~ 2048;
#X connect 0 0 1 0;
#X connect 3 0 0 0;
#X connect 4 0 11 0;
#X connect 4 1 1 0;
#X connect 4 2 2 0;
#X connect 6 0 10 0;
#X connect 7 0 10 0;
#X connect 8 0 9 0;
#X connect 9 0 10 0;
#X connect 10 0 4 0;
#X connect 11 0 5 0;
#X restore 266 66 pd hanning;
#N canvas 965 171 894 561 record 0;
#X obj 6 229 *~, f 8;
#X obj 94 63 t b b b b, f 14;
#X obj 226 162 line~;
#X msg 226 85 0 \, 1 500;
#X msg 128 109 1 \, 0 900;
#X obj 141 85 del 1000 1 msec;
#X obj 6 10 inlet~;
#X obj 94 9 inlet;
#X msg 116 160 stop;
#X obj 116 139 delay 96000 1 samp;
#X obj 51 257 outlet~;
#X obj 101 260 outlet;
#X connect 0 0 10 0;
#X connect 1 0 11 0;
#X connect 1 1 9 0;
#X connect 1 2 5 0;
#X connect 1 3 3 0;
#X connect 2 0 0 1;
#X connect 3 0 2 0;
#X connect 4 0 2 0;
#X connect 5 0 4 0;
#X connect 6 0 0 0;
#X connect 7 0 1 0;
#X connect 8 0 11 0;
#X connect 9 0 8 0;
#X restore 4 44 pd record;
#X obj 148 20 bng 15 250 50 0 empty empty empty 0 -8 0 8 #fcfcfc #000000 #000000;
#X obj 106 353 giga.rev~ -size 100 -damp 1 -bw 0.7 -dry 1 -early 0.18 -late 1 -spread 1;
#X obj 5 127 delay 1 1 msec;
#X obj 37 214 t b f;
#X obj 37 238 delay 1 1 msec;
#X obj 5 148 t b b, f 7;
#X obj 37 190 f;
#X msg 5 286 pause \$1;
#X msg 5 169 0;
#X msg 37 261 1;
#X obj 148 3 inlet;
#X obj 203 18 inlet;
#X obj 203 66 unpack f f;
#X obj 5 321 grainer~ 1, f 41;
#X obj 5 388 earplug~, f 57;
#X obj 5 104 t b f b, f 28;
#X obj 142 170 + 180;
#X msg 236 267 gtab recording \, atab grain-env \, gar 0.4 \, gs 0.3 \, azr 180 \, ag 0.5 \, gfr 0.1 \, start \, pause 1;
#X obj 142 149 random 90;
#X connect 0 0 9 0;
#X connect 1 0 9 1;
#X connect 6 0 27 0;
#X connect 9 0 2 0;
#X connect 9 1 2 0;
#X connect 10 0 9 1;
#X connect 10 0 8 0;
#X connect 11 0 3 0;
#X connect 11 1 4 0;
#X connect 12 0 15 0;
#X connect 13 0 14 0;
#X connect 13 1 14 1;
#X connect 14 0 19 0;
#X connect 15 0 18 0;
#X connect 15 1 16 0;
#X connect 16 0 13 0;
#X connect 17 0 23 0;
#X connect 18 0 17 0;
#X connect 19 0 17 0;
#X connect 20 0 10 0;
#X connect 21 0 22 0;
#X connect 22 0 25 0;
#X connect 22 1 16 1;
#X connect 23 0 24 0;
#X connect 23 1 11 0;
#X connect 23 2 11 0;
#X connect 24 0 3 0;
#X connect 24 1 4 0;
#X connect 25 0 12 0;
#X connect 25 1 12 1;
#X connect 25 2 28 0;
#X connect 26 0 24 1;
#X connect 27 0 23 0;
#X connect 28 0 26 0;
#X restore 9 380 pd GRANULADOR;
#X f 20;
#X obj 9 357 t b a, f 20;
#X obj 23 143 random 12;
#X obj 23 164 + 60;
#X obj 9 33 sel 60, f 9;
#X obj 9 65 t b b b, f 17;
#X obj 91 101 random 2000;
#X obj 91 122 + 1000;
#X obj 91 143 t f f;
#X obj 9 9 inlet;
#X obj 23 274 s ui_process1note;
#X obj 113 188 s ui_process1noteDelay;
#X obj 48 184 loadbang;
#X msg 48 205 sharp;
#X obj 23 227 pitch2note;
#X obj 9 315 delay 1000 1 msec;
#X msg 9 335 50 2000;
#X obj 312 184 inlet;
#X obj 312 205 t b b;
#X obj 250 280 + 1000;
#X obj 250 301 t f f;
#X obj 272 346 s ui_process1noteDelay;
#X connect 2 0 1 0;
#X connect 2 1 1 1;
#X connect 3 0 4 0;
#X connect 4 0 5 1;
#X connect 4 0 15 0;
#X connect 5 0 6 0;
#X connect 6 0 16 0;
#X connect 6 1 3 0;
#X connect 6 2 7 0;
#X connect 7 0 8 0;
#X connect 8 0 9 0;
#X connect 9 0 16 1;
#X connect 9 1 12 0;
#X connect 10 0 5 0;
#X connect 13 0 14 0;
#X connect 14 0 15 0;
#X connect 15 0 11 0;
#X connect 16 0 17 0;
#X connect 17 0 2 0;
#X connect 18 0 19 0;
#X connect 19 0 16 0;
#X connect 19 1 20 0;
#X connect 20 0 21 0;
#X connect 21 0 16 1;
#X connect 21 1 22 0;
#X restore 9 309 pd process1;
#X obj 9 146 t f f f, f 27;
#N canvas 740 32 1107 901 process2 0;
#X obj 23 143 random 12;
#X obj 23 164 + 60;
#X obj 9 65 t b b b, f 17;
#X obj 121 108 random 2000;
#X obj 121 129 + 1000;
#X obj 121 150 t f f;
#X obj 9 9 inlet;
#X obj 48 184 loadbang;
#X msg 48 205 sharp;
#X obj 23 227 pitch2note;
#X obj 23 274 s ui_process2note;
#X obj 143 195 s ui_process2noteDelay;
#X text 115 394 TEXTURAS;
#N canvas 168 305 622 649 ESPECTRO 0;
#X obj 4 171 giga.rev~;
#X obj 4 2 r PEAKS;
#X obj 4 284 throw~ dac1;
#X obj 71 284 throw~ dac2;
#X msg 4 129 sigmund \$1 \$2 \$3 \$4 \$5;
#X obj 126 131 unpack f;
#X obj 4 109 t a a, f 25;
#X obj 126 152 sel 14;
#X msg 126 173 0;
#X obj 4 76 spigot;
#X obj 31 52 tgl 15 0 empty empty empty 0 -8 0 8 #fcfcfc #000000 #000000 0 1;
#X msg 31 28 1;
#N canvas 419 29 1279 711 freeze 0;
#X obj 6 7 inlet;
#X obj 6 36 route go sigmund switch, f 113;
#X obj 193 123 outlet~;
#X obj 193 100 clone Libs/partial 14;
#X obj 193 80 prepend next;
#X connect 0 0 1 0;
#X connect 1 1 4 0;
#X connect 3 0 2 0;
#X connect 4 0 3 0;
#X restore 4 151 pd freeze;
#X obj 93 6 inlet;
#X obj 4 233 *~ 1;
#X obj 71 233 *~ 1;
#X connect 0 0 14 0;
#X connect 0 1 15 0;
#X connect 1 0 9 0;
#X connect 4 0 12 0;
#X connect 5 0 7 0;
#X connect 6 0 4 0;
#X connect 6 1 5 0;
#X connect 7 0 8 0;
#X connect 8 0 10 0;
#X connect 9 0 6 0;
#X connect 10 0 9 1;
#X connect 11 0 10 0;
#X connect 12 0 0 0;
#X connect 13 0 11 0;
#X connect 14 0 2 0;
#X connect 15 0 3 0;
#X restore 9 396 pd ESPECTRO;
#X f 20;
#X obj 76 31 bng 15 250 50 0 empty empty empty 0 -8 0 8 #fcfcfc #000000 #000000;
#X obj 9 342 delay 1 1 msec, f 23;
#X obj 9 33 sel 68, f 9;
#X obj 312 186 inlet;
#X obj 312 205 t b b;
#X obj 250 280 + 1000;
#X obj 250 301 t f f;
#X obj 272 346 s ui_process2noteDelay;
#X connect 0 0 1 0;
#X connect 1 0 9 0;
#X connect 1 0 16 1;
#X connect 2 0 15 0;
#X connect 2 1 0 0;
#X connect 2 2 3 0;
#X connect 3 0 4 0;
#X connect 4 0 5 0;
#X connect 5 0 15 1;
#X connect 5 1 11 0;
#X connect 6 0 16 0;
#X connect 7 0 8 0;
#X connect 8 0 9 0;
#X connect 9 0 10 0;
#X connect 14 0 2 0;
#X connect 15 0 13 0;
#X connect 16 0 2 0;
#X connect 17 0 18 0;
#X connect 18 0 15 0;
#X connect 18 1 19 0;
#X connect 19 0 20 0;
#X connect 20 0 15 1;
#X connect 20 1 21 0;
#X restore 75 309 pd process2;
#N canvas 781 32 920 967 process3 0;
#X obj 23 85 random 12;
#X obj 23 106 + 60;
#X obj 8 61 t b b b, f 17;
#X obj 120 326 t f f;
#X obj 8 5 inlet;
#X obj 48 307 loadbang;
#X msg 48 328 sharp;
#X obj 23 350 pitch2note;
#X obj 8 398 delay 1 1 msec, f 23;
#X obj 142 352 s ui_process3noteDelay;
#X obj 8 470 throw~ dac1;
#X obj 135 470 throw~ dac2;
#X obj 8 29 sel 72, f 9;
#X obj 120 276 random 300;
#X obj 120 305 + 400;
#X msg 8 417 next 1;
#X obj 154 7 inlet;
#X obj 8 441 clone Libs/clone-marimba 4;
#X obj 76 157 f 72, f 6;
#X obj 76 182 expr if($f1 == $f2 \, 1 \, 0);
#X obj 23 378 s ui_process3note;
#X obj 198 133 loadbang;
#X msg 198 154 72;
#X obj 76 203 sel 1 0;
#X obj 23 241 f, f 9;
#X obj 23 127 t f b f f, f 22;
#X obj 257 159 t b b;
#X obj 279 234 + 1000;
#X obj 279 255 t f f;
#X connect 0 0 1 0;
#X connect 1 0 25 0;
#X connect 2 0 8 0;
#X connect 2 1 0 0;
#X connect 2 2 13 0;
#X connect 3 0 8 1;
#X connect 3 1 9 0;
#X connect 4 0 12 0;
#X connect 5 0 6 0;
#X connect 6 0 7 0;
#X connect 7 0 20 0;
#X connect 8 0 15 0;
#X connect 12 0 2 0;
#X connect 13 0 14 0;
#X connect 14 0 3 0;
#X connect 15 0 17 0;
#X connect 16 0 26 0;
#X connect 17 0 10 0;
#X connect 17 1 11 0;
#X connect 18 0 19 0;
#X connect 19 0 23 0;
#X connect 21 0 22 0;
#X connect 22 0 19 1;
#X connect 23 0 0 0;
#X connect 23 1 24 0;
#X connect 24 0 7 0;
#X connect 24 0 19 1;
#X connect 24 0 12 1;
#X connect 25 1 18 0;
#X connect 25 2 18 1;
#X connect 25 3 24 1;
#X connect 26 0 8 0;
#X connect 26 1 27 0;
#X connect 27 0 28 0;
#X connect 28 0 8 1;
#X connect 28 1 9 0;
#X restore 141 309 pd process3;
#X obj 358 195 s tupletTime;
#X obj 358 154 loadbang;
#X obj 82 14 r pieceInstrument;
#X obj 82 35 sel Guitar Violino;
#X msg 82 56 12;
#X msg 119 56 0;
#N canvas 781 32 512 525 process3 0;
#X obj 8 27 bng 15 250 50 0 empty empty empty 0 -8 0 8 #fcfcfc #000000 #000000;
#X obj 8 142 delay 1 1 msec, f 23;
#X obj 8 214 throw~ dac1;
#X obj 165 214 throw~ dac2;
#X obj 90 81 random 300;
#X obj 90 102 + 400;
#X msg 8 161 next 1;
#X obj 8 8 inlet;
#X obj 8 61 t b b, f 17;
#X obj 8 185 clone Libs/clone-marimba-lento 4;
#X connect 0 0 8 0;
#X connect 1 0 6 0;
#X connect 4 0 5 0;
#X connect 5 0 1 1;
#X connect 6 0 9 0;
#X connect 7 0 0 0;
#X connect 8 0 1 0;
#X connect 8 1 4 0;
#X connect 9 0 2 0;
#X connect 9 1 3 0;
#X restore 468 100 pd process3;
#X obj 468 80 bng 15 250 50 0 empty empty empty 0 -8 0 8 #fcfcfc #000000 #000000;
#X obj 460 52 metro 4000;
#X obj 458 14 loadbang;
#X obj 433 11 bng 15 250 50 0 empty empty empty 0 -8 0 8 #fcfcfc #000000 #000000;
#X obj 132 341 loadbang;
#X obj 132 362 delay 4000 1 msec;
#X obj 6 434 *~;
#X obj 68 433 *~;
#X obj 132 405 vline~;
#X msg 132 383 1 20000;
#X obj 54 128 nbx 5 14 -1e+37 1e+37 0 0 empty empty empty 0 -8 0 8 #fcfcfc #000000 #000000 0 256;
#X obj 192 74 adc~;
#X obj 192 94 vu~;
#X obj 192 143 change;
#X obj 237 179 sel 1, f 19;
#X obj 237 203 random 2;
#X obj 237 224 + 1;
#X obj 237 245 nbx 5 14 -1e+37 1e+37 0 0 empty empty empty 0 -8 0 8 #fcfcfc #000000 #000000 0 256;
#X obj 237 264 sel 1 2 3, f 23;
#X obj 192 122 expr if($f1 > $f2 \, 1 \, 0);
#X obj 424 154 loadbang;
#X obj 424 195 s tupletTimeLento;
#X msg 424 174 3000 4000;
#X msg 358 174 100 400;
#X obj 282 34 loadbang;
#X obj 453 457 s ui_duracaototal;
#X obj 453 413 loadbang;
#X msg 453 434 240000;
#X obj 192 170 bng 15 250 50 0 empty empty empty 0 -8 0 8 #fcfcfc #000000 #000000;
#X msg 282 55 -5;
#X obj 105 218 blocksize~;
#X msg 328 340 r pd-dsp-started;
#X obj 342 53 r followerGain;
#X obj 354 84 print gain;
#X connect 0 0 1 0;
#X connect 1 0 9 0;
#X connect 1 0 29 0;
#X connect 2 0 1 1;
#X connect 3 0 25 0;
#X connect 4 0 26 0;
#X connect 7 0 6 0;
#X connect 9 0 8 0;
#X connect 9 1 10 0;
#X connect 9 2 11 0;
#X connect 13 0 42 0;
#X connect 14 0 15 0;
#X connect 15 0 16 0;
#X connect 15 1 17 0;
#X connect 16 0 2 0;
#X connect 17 0 2 0;
#X connect 19 0 18 0;
#X connect 20 0 19 0;
#X connect 21 0 20 0;
#X connect 22 0 20 0;
#X connect 23 0 24 0;
#X connect 24 0 28 0;
#X connect 25 0 5 0;
#X connect 26 0 5 1;
#X connect 27 0 26 1;
#X connect 27 0 25 1;
#X connect 28 0 27 0;
#X connect 30 0 31 0;
#X connect 31 0 38 0;
#X connect 32 0 33 0;
#X connect 32 0 47 0;
#X connect 33 0 34 0;
#X connect 34 0 35 0;
#X connect 35 0 36 0;
#X connect 36 0 37 0;
#X connect 37 0 8 1;
#X connect 37 1 10 1;
#X connect 37 2 11 1;
#X connect 38 0 32 0;
#X connect 39 0 41 0;
#X connect 41 0 40 0;
#X connect 42 0 12 0;
#X connect 43 0 48 0;
#X connect 45 0 46 0;
#X connect 46 0 44 0;
#X connect 48 0 38 1;
#X connect 51 0 52 0;
#X connect 51 0 38 1;
