#N canvas 1 6 1527 937 8;
#X obj 169 254 unpack f f f f f f, f 47;
#X obj 169 15 inlet;
#X obj 169 438 outlet~;
#X obj 408 168 + 2;
#X obj 408 147 random 1;
#N canvas 81 119 1029 829 quialteras 1;
#X obj 41 92 else/loop;
#X obj 6 9 inlet;
#X obj 40 205 else/loop;
#X obj 40 226 bng 15 250 50 0 empty empty empty 0 -8 0 8 #fcfcfc #000000 #000000;
#X msg 132 177 0;
#X obj 40 270 /, f 14;
#X obj 41 179 t f f, f 17;
#X obj 41 117 t b b b, f 36;
#X msg 258 127 -1;
#X msg 218 162 0;
#X msg 6 394 auto;
#X msg 63 391 line 0;
#X obj 6 369 t b b;
#X obj 41 73 t f b, f 59;
#X obj 6 38 t b f, f 7;
#X msg 40 246 445;
#X obj 41 137 random 3;
#X obj 260 382 outlet;
#X obj 6 420 text sequence quialtera\$0 -g;
#X obj 258 163 text delete quialtera\$0;
#X obj 247 8 text define quialtera\$0;
#X obj 40 341 text insert quialtera\$0;
#X msg 93 10 2;
#X obj 40 291 list append \$0;
#X msg 40 321 \$1 note-\$2 bang;
#X obj 260 361 r note-\$0;
#X obj 41 158 + 1;
#X obj 263 236 expr random($f1 \, $f2);
#X obj 263 217 unpack f f, f 21;
#X msg 263 257 set \$1;
#X obj 263 198 r tupletTimeLento;
#X connect 0 0 7 0;
#X connect 1 0 14 0;
#X connect 2 0 3 0;
#X connect 3 0 15 0;
#X connect 5 0 23 0;
#X connect 6 0 2 0;
#X connect 6 1 5 1;
#X connect 7 0 16 0;
#X connect 7 1 4 0;
#X connect 7 2 9 0;
#X connect 8 0 19 0;
#X connect 10 0 18 0;
#X connect 11 0 18 0;
#X connect 12 0 10 0;
#X connect 12 1 11 0;
#X connect 13 0 0 0;
#X connect 13 1 8 0;
#X connect 14 0 12 0;
#X connect 14 1 13 0;
#X connect 15 0 5 0;
#X connect 16 0 26 0;
#X connect 22 0 14 0;
#X connect 23 0 24 0;
#X connect 24 0 21 0;
#X connect 25 0 17 0;
#X connect 26 0 6 0;
#X connect 27 0 29 0;
#X connect 28 0 27 0;
#X connect 28 1 27 1;
#X connect 29 0 15 0;
#X connect 30 0 28 0;
#X restore 408 189 pd quialteras;
#X obj 514 207 loadbang;
#X obj 515 303 /, f 13;
#X obj 514 228 t b b;
#X obj 585 190 bng 15 250 50 0 empty empty empty 0 -8 0 8 #fcfcfc #000000 #000000;
#X obj 408 210 t b b, f 15;
#X obj 401 359 f;
#X obj 503 370 *;
#X obj 515 249 expr random(59 \, 64);
#X obj 619 249 expr random(59 \, 64);
#X obj 408 125 spigot;
#X obj 435 95 expr if($f1 < 200 \, 0 \, 1);
#X msg 435 76 \$1;
#X obj 537 346 else/spread 2000;
#X obj 614 379 / 2;
#X msg 537 321 6000;
#X obj 401 283 else/spread 2000;
#X obj 478 316 / 2;
#X obj 168 53 t b a a b, f 92;
#X obj 685 295 bng 15 250 50 0 empty empty empty 0 -8 0 8 #fcfcfc #000000 #000000;
#X obj 674 428 pow 2 2;
#X obj 674 340 random 3;
#X obj 674 381 t b f;
#X msg 674 403 2;
#X obj 674 361 + 1;
#X msg 168 83 1.14 0.885 0.9 0.95 0 \$1;
#X obj 169 401 percolate/bowedbar~, f 47;
#X msg 246 18 500 500;
#X connect 0 0 31 0;
#X connect 0 1 31 1;
#X connect 0 2 31 2;
#X connect 0 3 31 3;
#X connect 0 4 31 4;
#X connect 0 5 21 0;
#X connect 1 0 23 0;
#X connect 3 0 5 0;
#X connect 4 0 3 0;
#X connect 5 0 10 0;
#X connect 6 0 8 0;
#X connect 7 0 12 1;
#X connect 8 0 13 0;
#X connect 8 1 14 0;
#X connect 9 0 8 0;
#X connect 10 1 11 0;
#X connect 11 0 12 0;
#X connect 11 0 31 5;
#X connect 12 0 11 1;
#X connect 13 0 7 0;
#X connect 14 0 7 1;
#X connect 15 0 4 0;
#X connect 16 0 15 1;
#X connect 17 0 16 0;
#X connect 18 1 19 0;
#X connect 19 0 18 0;
#X connect 20 0 18 0;
#X connect 21 0 11 1;
#X connect 21 1 22 0;
#X connect 22 0 21 0;
#X connect 23 0 15 0;
#X connect 23 1 30 0;
#X connect 23 2 17 0;
#X connect 23 3 26 0;
#X connect 24 0 26 0;
#X connect 25 0 19 1;
#X connect 26 0 29 0;
#X connect 27 0 28 0;
#X connect 27 1 25 1;
#X connect 28 0 25 0;
#X connect 29 0 27 0;
#X connect 30 0 0 0;
#X connect 31 0 2 0;
#X connect 32 0 23 0;
