#N canvas 356 32 1399 947 8;
#X msg 11 185 sigmund \$1 \$2 \$3 \$4 \$5;
#X obj 11 98 spigot;
#N canvas 463 115 1202 636 freeze 0;
#X obj 6 7 inlet;
#X obj 6 92 route 0;
#X obj 6 271 outlet~;
#X obj 6 28 route sigmund;
#X obj 6 160 grainer;
#X obj 48 160 grainer;
#X obj 48 92 route 1;
#X obj 89 160 grainer;
#X obj 89 92 route 2;
#X obj 131 160 grainer;
#X obj 173 160 grainer;
#X obj 214 160 grainer;
#X obj 131 92 route 3;
#X obj 173 92 route 4;
#X obj 214 92 route 5;
#X obj 20 123 bng 15 250 50 0 empty empty empty 0 -8 0 8 #fcfcfc #000000 #000000;
#X connect 0 0 3 0;
#X connect 1 0 4 0;
#X connect 3 0 1 0;
#X connect 3 0 6 0;
#X connect 3 0 8 0;
#X connect 3 0 14 0;
#X connect 3 0 13 0;
#X connect 3 0 12 0;
#X connect 4 0 2 0;
#X connect 5 0 2 0;
#X connect 6 0 5 0;
#X connect 7 0 2 0;
#X connect 8 0 7 0;
#X connect 9 0 2 0;
#X connect 10 0 2 0;
#X connect 11 0 2 0;
#X connect 12 0 9 0;
#X connect 13 0 10 0;
#X connect 14 0 11 0;
#X connect 15 0 4 0;
#X restore 11 207 pd freeze;
#X obj 144 217 sel 14;
#X obj 144 238 bng 15 250 50 0 empty empty empty 0 -8 0 8 #fcfcfc #000000 #000000;
#X msg 144 258 0;
#X obj 11 131 t a a, f 23;
#X obj 144 192 expr if($f1 == 13 \, 14 \, 0);
#X obj 11 411 outlet~;
#X obj 11 19 r PEAKS;
#X obj 38 40 inlet;
#X obj 11 227 *~ 1;
#X obj 11 303 hip~ 5000;
#N canvas 130 168 960 619 bob 0;
#X obj 22 12 inlet~;
#X obj 22 237 outlet~;
#X obj 22 202 bob~, f 24;
#X obj 80 165 line~;
#X obj 80 134 pack f 50;
#X floatatom 80 107 8 0 0 0 - - - 0;
#X obj 139 174 sig~;
#X obj 140 124 loadbang;
#X msg 140 145 3.6;
#X obj 80 38 r filtroCutOff;
#X obj 80 73 expr $f1 * (random(95 \, 145) * 0.01);
#X connect 0 0 2 0;
#X connect 2 0 1 0;
#X connect 3 0 2 1;
#X connect 4 0 3 0;
#X connect 5 0 4 0;
#X connect 6 0 2 2;
#X connect 7 0 8 0;
#X connect 8 0 6 0;
#X connect 9 0 10 0;
#X connect 10 0 5 0;
#X restore 11 332 pd bob;
#X obj 53 247 r filterHip;
#X obj 80 451 outlet~;
#X obj 297 266 line, f 20;
#X obj 297 240 list;
#X obj 520 190 expr random(3000 \, 6000);
#X obj 297 219 t f f, f 9;
#X obj 386 320 sel, f 9;
#X obj 297 136 spigot;
#X msg 386 342 1;
#X obj 297 157 t b b;
#X msg 355 175 0;
#X obj 297 336 nbx 5 14 -1e+37 1e+37 0 0 empty empty empty 0 -8 0 8 #fcfcfc #000000 #000000 0 256;
#X obj 340 320 loadbang;
#X obj 38 61 t f b b, f 97;
#X obj 11 378 *~;
#X obj 80 420 *~;
#X obj 235 324 abs;
#X obj 235 302 - 1;
#X msg 230 395 4000;
#X obj 231 443 nbx 5 14 -1e+37 1e+37 0 0 empty empty empty 0 -8 0 8 #fcfcfc #000000 #000000 0 256;
#X obj 231 422 expr $f1 * (random(95 \, 115) * 0.01);
#X obj 53 276 expr $f1 * (random(95 \, 115) * 0.01);
#X obj 297 198 expr random(10 \, 90) * 0.01;
#X connect 0 0 2 0;
#X connect 1 0 6 0;
#X connect 2 0 11 0;
#X connect 3 0 4 0;
#X connect 4 0 5 0;
#X connect 5 0 1 1;
#X connect 6 0 0 0;
#X connect 6 1 7 0;
#X connect 7 0 3 0;
#X connect 9 0 1 0;
#X connect 10 0 27 0;
#X connect 11 0 12 0;
#X connect 12 0 13 0;
#X connect 13 0 28 0;
#X connect 13 0 29 0;
#X connect 14 0 35 0;
#X connect 16 0 20 0;
#X connect 16 0 25 0;
#X connect 16 0 31 0;
#X connect 17 0 16 0;
#X connect 18 0 17 1;
#X connect 19 0 17 0;
#X connect 19 1 20 1;
#X connect 20 0 22 0;
#X connect 21 0 23 0;
#X connect 22 0 21 1;
#X connect 23 0 36 0;
#X connect 23 1 24 0;
#X connect 24 0 21 1;
#X connect 25 0 29 1;
#X connect 26 0 22 0;
#X connect 27 0 1 1;
#X connect 27 1 21 0;
#X connect 27 2 18 0;
#X connect 28 0 8 0;
#X connect 29 0 15 0;
#X connect 30 0 28 1;
#X connect 31 0 30 0;
#X connect 32 0 34 0;
#X connect 34 0 33 0;
#X connect 35 0 12 1;
#X connect 36 0 19 0;
