#N canvas 739 14 867 940 8;
#X obj 64 239 else/giga.rev~;
#X msg 11 185 sigmund \$1 \$2 \$3 \$4 \$5;
#X obj 11 98 spigot;
#N canvas 463 115 1202 636 freeze 0;
#X obj 6 7 inlet;
#X obj 7 92 route 0;
#X obj 7 271 outlet~;
#X obj 7 160 marimba;
#X obj 6 28 route sigmund;
#X obj 49 160 bowedbar;
#X obj 7 113 t a a;
#X obj 96 160 marimba;
#X obj 138 160 bowedbar;
#X obj 96 113 t a a;
#X obj 96 92 route 1;
#X obj 184 160 marimba;
#X obj 226 160 bowedbar;
#X obj 184 113 t a a;
#X obj 275 160 marimba;
#X obj 317 160 bowedbar;
#X obj 275 113 t a a;
#X obj 184 92 route 2;
#X obj 275 92 route 3;
#X connect 0 0 4 0;
#X connect 1 0 6 0;
#X connect 3 0 2 0;
#X connect 4 0 1 0;
#X connect 4 0 10 0;
#X connect 4 0 17 0;
#X connect 4 0 18 0;
#X connect 5 0 2 0;
#X connect 6 0 3 0;
#X connect 6 1 5 0;
#X connect 7 0 2 0;
#X connect 8 0 2 0;
#X connect 9 0 7 0;
#X connect 9 1 8 0;
#X connect 10 0 9 0;
#X connect 11 0 2 0;
#X connect 12 0 2 0;
#X connect 13 0 11 0;
#X connect 13 1 12 0;
#X connect 14 0 2 0;
#X connect 15 0 2 0;
#X connect 16 0 14 0;
#X connect 16 1 15 0;
#X connect 17 0 13 0;
#X connect 18 0 16 0;
#X restore 11 207 pd freeze;
#X obj 78 289 *~ 0.4;
#X obj 11 289 *~ 0.4;
#X obj 144 217 sel 14;
#X obj 144 238 bng 15 250 50 0 empty empty empty 0 -8 0 8 #fcfcfc #000000 #000000;
#X msg 144 258 0;
#X obj 11 131 t a a, f 23;
#X obj 144 192 expr if($f1 == 13 \, 14 \, 0);
#X obj 11 391 outlet~;
#X obj 78 392 outlet~;
#X obj 11 19 r PEAKS;
#X obj 38 35 inlet;
#X obj 148 313 else/vu~;
#X obj 148 389 sel 0;
#X msg 148 410 0;
#X obj 148 345 spigot;
#X msg 319 252 1;
#X obj 200 389 nbx 5 14 -1e+37 1e+37 0 0 empty empty empty 0 -8 0 8 #fcfcfc #000000 #000000 0 256;
#X obj 148 368 expr if($f1 < -100 \, 0 \, 1);
#X obj 319 231 delay 1000 1 msec;
#X obj 278 231 switch~;
#X obj 288 87 r tupletTime;
#X obj 288 108 unpack f f;
#X obj 313 155 del 1 1000 msec;
#X obj 38 61 t f b f b b;
#X msg 221 118 stop;
#X msg 313 176 0;
#X connect 0 0 5 0;
#X connect 0 1 4 0;
#X connect 1 0 3 0;
#X connect 2 0 9 0;
#X connect 3 0 0 0;
#X connect 3 0 5 0;
#X connect 3 0 4 0;
#X connect 4 0 12 0;
#X connect 4 0 15 0;
#X connect 5 0 11 0;
#X connect 6 0 7 0;
#X connect 7 0 8 0;
#X connect 8 0 2 1;
#X connect 9 0 1 0;
#X connect 9 1 10 0;
#X connect 10 0 6 0;
#X connect 13 0 2 0;
#X connect 14 0 27 0;
#X connect 15 0 18 0;
#X connect 16 0 17 0;
#X connect 17 0 18 1;
#X connect 18 0 21 0;
#X connect 19 0 18 1;
#X connect 21 0 16 0;
#X connect 21 0 20 0;
#X connect 22 0 19 0;
#X connect 24 0 25 0;
#X connect 25 1 26 1;
#X connect 26 0 29 0;
#X connect 27 0 2 1;
#X connect 27 1 22 0;
#X connect 27 2 23 0;
#X connect 27 3 26 0;
#X connect 27 4 28 0;
#X connect 28 0 26 0;
#X connect 29 0 23 0;
