#N canvas 619 32 786 891 8;
#X obj 32 15 inlet;
#X obj 32 407 outlet~;
#X obj 32 96 + 2;
#X obj 32 75 random 1;
#X obj 32 325 tabplay~;
#X obj 32 36 b;
#X obj 32 57 bng 15 250 50 0 empty empty empty 0 -8 0 8 #fcfcfc #000000 #000000;
#X msg 302 215 0;
#X obj 239 263 osc~;
#X obj 239 215 samplerate~;
#X obj 239 286 *~ -0.5;
#X obj 239 309 +~ 0.5;
#X obj 239 239 / 512;
#X text 287 261 period 512;
#X text 237 154 window table;
#X obj 203 168 t b b b, f 15;
#X obj 32 351 *~;
#X obj 103 163 nbx 5 14 -1e+37 1e+37 0 0 empty empty empty 0 -8 0 8 #fcfcfc #000000 #000000 0 256;
#X obj 32 247 expr random(0 \, 44100);
#X obj 32 268 t f f;
#X obj 32 294 list;
#X obj 32 373 else/giga.rev~ -size 30 -damp 1 -bw 0.7 -dry 1 -early 0.18 -late 0.4 -spread 0.4;
#X obj 203 115 t b f;
#X msg 68 218 set audio\$1;
#X obj 132 218 nbx 5 14 -1e+37 1e+37 0 0 empty empty empty 0 -8 0 8 #fcfcfc #000000 #000000 0 256;
#X obj 261 139 + 150;
#X obj 32 136 t b b f f, f 22;
#X obj 32 116 quialtera-grain;
#X obj 68 190 expr random(15 \, 15);
#X connect 0 0 5 0;
#X connect 2 0 27 0;
#X connect 3 0 2 0;
#X connect 4 0 16 0;
#X connect 5 0 6 0;
#X connect 6 0 3 0;
#X connect 7 0 8 1;
#X connect 8 0 10 0;
#X connect 9 0 12 0;
#X connect 10 0 11 0;
#X connect 11 0 16 1;
#X connect 12 0 8 0;
#X connect 15 1 9 0;
#X connect 15 2 7 0;
#X connect 16 0 21 0;
#X connect 17 0 20 1;
#X connect 18 0 19 0;
#X connect 19 0 20 0;
#X connect 20 0 4 0;
#X connect 21 0 1 0;
#X connect 22 0 15 0;
#X connect 22 1 25 0;
#X connect 23 0 4 0;
#X connect 25 0 12 1;
#X connect 26 0 18 0;
#X connect 26 1 28 0;
#X connect 26 2 17 0;
#X connect 26 3 22 0;
#X connect 27 0 26 0;
#X connect 28 0 23 0;
#X connect 28 0 24 0;
