#N canvas 604 30 1199 814 8;
#X floatatom 32 217 5 0 0 0 - - - 0;
#X floatatom 78 217 5 0 0 0 - - - 0;
#X floatatom 125 217 5 0 0 0 - - - 0;
#X floatatom 171 218 5 0 0 0 - - - 0;
#X floatatom 218 215 5 0 0 0 - - - 0;
#X obj 32 183 unpack f f f f f f, f 47;
#X obj 32 341 percolate/marimba~, f 47;
#X msg 32 66 0.59 0.03 0.3 0 0 \$1;
#X obj 32 15 inlet;
#X obj 32 362 outlet~;
#X msg 274 145 noteon;
#X obj 273 86 + 2;
#X obj 273 65 random 1;
#N canvas 81 119 1029 829 quialteras 0;
#X obj 41 92 else/loop;
#X obj 6 9 inlet;
#X obj 40 205 else/loop;
#X obj 40 226 bng 15 250 50 0 empty empty empty 0 -8 0 8 #fcfcfc #000000 #000000;
#X msg 132 177 0;
#X obj 40 270 /, f 14;
#X obj 41 179 t f f, f 17;
#X obj 41 117 t b b b, f 36;
#X msg 258 127 -1;
#X msg 218 162 0;
#X msg 6 394 auto;
#X msg 63 391 line 0;
#X obj 6 369 t b b;
#X obj 41 73 t f b, f 59;
#X obj 6 38 t b f, f 7;
#X msg 40 246 500;
#X obj 41 137 random 3;
#X obj 246 298 outlet;
#X obj 6 420 text sequence quialtera\$0 -g;
#X obj 258 163 text delete quialtera\$0;
#X obj 247 8 text define quialtera\$0;
#X obj 40 341 text insert quialtera\$0;
#X msg 93 10 2;
#X obj 40 291 list append \$0;
#X msg 40 321 \$1 note-\$2 bang;
#X obj 246 277 r note-\$0;
#X obj 41 158 + 1;
#X connect 0 0 7 0;
#X connect 1 0 14 0;
#X connect 2 0 3 0;
#X connect 3 0 15 0;
#X connect 5 0 23 0;
#X connect 6 0 2 0;
#X connect 6 1 5 1;
#X connect 7 0 16 0;
#X connect 7 1 4 0;
#X connect 7 2 9 0;
#X connect 8 0 19 0;
#X connect 10 0 18 0;
#X connect 11 0 18 0;
#X connect 12 0 10 0;
#X connect 12 1 11 0;
#X connect 13 0 0 0;
#X connect 13 1 8 0;
#X connect 14 0 12 0;
#X connect 14 1 13 0;
#X connect 15 0 5 0;
#X connect 16 0 26 0;
#X connect 22 0 14 0;
#X connect 23 0 24 0;
#X connect 24 0 21 0;
#X connect 25 0 17 0;
#X connect 26 0 6 0;
#X restore 274 104 pd quialteras;
#X obj 377 133 loadbang;
#X obj 378 229 /, f 13;
#X obj 377 154 t b b;
#X obj 448 116 bng 15 250 50 0 empty empty empty 0 -8 0 8 #fcfcfc #000000 #000000;
#X obj 274 125 t b b, f 15;
#X obj 264 240 f;
#X obj 32 36 t b a, f 49;
#X obj 366 295 *;
#X obj 378 175 expr random(59 \, 64);
#X obj 482 175 expr random(59 \, 64);
#X connect 0 0 6 0;
#X connect 1 0 6 1;
#X connect 2 0 6 2;
#X connect 3 0 6 3;
#X connect 4 0 6 4;
#X connect 5 0 0 0;
#X connect 5 1 1 0;
#X connect 5 2 2 0;
#X connect 5 3 3 0;
#X connect 5 4 4 0;
#X connect 5 5 19 0;
#X connect 6 0 9 0;
#X connect 7 0 5 0;
#X connect 8 0 20 0;
#X connect 10 0 6 0;
#X connect 11 0 13 0;
#X connect 12 0 11 0;
#X connect 13 0 18 0;
#X connect 14 0 16 0;
#X connect 15 0 21 1;
#X connect 16 0 22 0;
#X connect 16 1 23 0;
#X connect 17 0 16 0;
#X connect 18 0 10 0;
#X connect 18 1 19 0;
#X connect 19 0 6 5;
#X connect 19 0 21 0;
#X connect 20 0 12 0;
#X connect 20 1 7 0;
#X connect 21 0 19 1;
#X connect 22 0 15 0;
#X connect 23 0 15 1;
