#N canvas 228 43 1277 896 8;
#X obj 11 316 osc~;
#X obj 11 344 *~, f 25;
#X obj 258 290 else/envgen~;
#X obj 11 4 inlet;
#X obj 11 380 outlet~;
#X obj 415 218 cyclone/gate 5 1, f 32;
#N canvas 0 0 543 413 piano 0;
#X obj 6 15 inlet;
#X msg 6 98 0 100 \$1 100 \$2 350 \$2 250 0;
#X obj 6 36 t f f;
#X obj 6 78 list;
#X obj 28 56 * 0.6;
#X obj 6 119 outlet;
#X connect 0 0 2 0;
#X connect 1 0 5 0;
#X connect 2 0 3 0;
#X connect 2 1 4 0;
#X connect 3 0 1 0;
#X connect 4 0 3 1;
#X restore 415 250 pd piano;
#X obj 340 184 t b f, f 47;
#N canvas 75 116 543 527 staccato 0;
#X obj 6 15 inlet;
#X obj 6 36 t f f;
#X obj 6 101 pack f f f f;
#X obj 28 60 * 0.5;
#X msg 6 161 0 171 \$1 204 \$2 230 \$2 300 0 924 0;
#X obj 6 182 outlet;
#X connect 0 0 1 0;
#X connect 1 0 2 0;
#X connect 1 1 3 0;
#X connect 2 0 4 0;
#X connect 3 0 2 1;
#X connect 4 0 5 0;
#X restore 454 273 pd staccato;
#X obj 11 271 sig~;
#X obj 415 134 random 2;
#X obj 415 155 + 1;
#X obj 415 114 b;
#X obj 11 82 unpack f f f f f, f 42;
#X obj 11 295 *~ 1, f 12;
#X obj 11 25 cyclone/prepend 0;
#X connect 0 0 1 0;
#X connect 1 0 4 0;
#X connect 2 0 1 1;
#X connect 3 0 15 0;
#X connect 5 0 6 0;
#X connect 5 1 8 0;
#X connect 6 0 2 1;
#X connect 7 0 2 0;
#X connect 7 1 5 1;
#X connect 8 0 2 1;
#X connect 9 0 14 0;
#X connect 10 0 11 0;
#X connect 11 0 5 0;
#X connect 12 0 10 0;
#X connect 13 1 9 0;
#X connect 13 2 7 0;
#X connect 13 4 12 0;
#X connect 14 0 0 0;
#X connect 15 0 13 0;
