#N canvas 34 -22 1127 897 8;
#X obj 166 78 list append;
#X obj 166 99 list;
#X obj 166 147 list length;
#X obj 166 120 t a a, f 23;
#X obj 166 211 list, f 15;
#X obj 6 143 r pd-dsp-started;
#X obj 6 176 samplerate~;
#X obj 6 197 / 2048;
#X obj 6 218 nbx 5 14 -1e+37 1e+37 0 0 empty empty empty 0 -8 0 8 #fcfcfc #000000 #000000 0 256;
#X obj 166 231 list split 4, f 29;
#X obj 220 277 list;
#X obj 259 276 list split 4, f 15;
#X obj 237 251 t a a;
#X obj 166 308 unpack f f f;
#X obj 259 308 unpack f f f, f 51;
#N canvas -11 27 938 719 freq 0;
#X obj 10 43 t b f, f 51;
#X obj 10 78 f;
#X obj 10 103 list;
#X obj 10 214 osc~;
#X msg 10 124 \$1 \$2;
#X obj 10 154 cyclone/line~;
#X obj 272 42 list length;
#X obj 272 63 sel 4, f 17;
#X obj 10 315 *~;
#X obj 272 125 line~;
#X msg 272 85 0 50;
#X msg 354 84 1 50;
#X obj 57 4 inlet;
#X obj 10 336 outlet~;
#X obj 12 6 inlet;
#X obj 272 5 inlet;
#X obj 44 64 inlet;
#X obj 72 213 outlet;
#X connect 0 0 1 0;
#X connect 0 1 5 0;
#X connect 1 0 2 0;
#X connect 2 0 4 0;
#X connect 3 0 8 0;
#X connect 4 0 5 0;
#X connect 5 0 3 0;
#X connect 5 1 17 0;
#X connect 6 0 7 0;
#X connect 7 0 10 0;
#X connect 7 1 11 0;
#X connect 8 0 13 0;
#X connect 9 0 8 1;
#X connect 10 0 9 0;
#X connect 11 0 9 0;
#X connect 12 0 0 0;
#X connect 14 0 1 1;
#X connect 15 0 6 0;
#X connect 16 0 2 1;
#X restore 166 352 pd freq;
#X f 20;
#N canvas 354 107 938 719 amp 0;
#X obj 10 43 t b f, f 51;
#X obj 10 78 f;
#X obj 10 103 list;
#X msg 10 124 \$1 \$2;
#X obj 10 154 cyclone/line~;
#X obj 57 4 inlet;
#X obj 10 336 outlet~;
#X obj 12 6 inlet;
#X obj 44 64 inlet;
#X obj 96 155 print;
#X connect 0 0 1 0;
#X connect 0 1 4 0;
#X connect 1 0 2 0;
#X connect 2 0 3 0;
#X connect 3 0 4 0;
#X connect 3 0 9 0;
#X connect 4 0 6 0;
#X connect 5 0 0 0;
#X connect 7 0 1 1;
#X connect 8 0 2 1;
#X restore 287 351 pd amp;
#X f 20;
#X obj 166 388 *~;
#X obj 166 409 outlet~;
#X obj 24 4 inlet;
#X obj 3 103 print;
#X obj 24 32 route reset speed, f 29;
#X obj 6 237 *, f 18;
#X obj 166 187 sel 80, f 47;
#X connect 0 0 1 0;
#X connect 1 0 0 1;
#X connect 1 0 3 0;
#X connect 2 0 23 0;
#X connect 3 0 2 0;
#X connect 3 1 4 1;
#X connect 4 0 9 0;
#X connect 5 0 6 0;
#X connect 6 0 7 0;
#X connect 7 0 8 0;
#X connect 8 0 22 0;
#X connect 9 0 13 0;
#X connect 9 1 12 0;
#X connect 10 0 9 0;
#X connect 10 0 15 3;
#X connect 11 0 14 0;
#X connect 12 0 10 1;
#X connect 12 1 11 0;
#X connect 13 0 15 0;
#X connect 13 1 16 0;
#X connect 14 0 15 2;
#X connect 14 1 16 1;
#X connect 15 0 17 0;
#X connect 15 1 10 0;
#X connect 16 0 17 1;
#X connect 17 0 18 0;
#X connect 19 0 21 0;
#X connect 21 0 0 1;
#X connect 21 1 22 1;
#X connect 21 2 0 0;
#X connect 22 0 15 1;
#X connect 22 0 16 2;
#X connect 23 0 4 0;
