#N canvas 230 -5 1034 900 8;
#X obj 9 8 adc~ 1;
#N canvas 485 -19 1206 890 pitch 0;
#X obj 4 132 float;
#X obj 4 105 expr if($f1 > ($f2 + 0.5) || $f1 < ($f2 - 0.5) \, $f1 \, $f2);
#X obj 4 175 nbx 5 14 -1e+37 1e+37 0 0 empty empty empty 0 -8 0 8 #fcfcfc #000000 #000000 0 256;
#X obj 4 194 change;
#X obj 23 374 float;
#X obj 45 260 t f b b, f 32;
#X msg 202 292 stop;
#X obj 4 260 t b;
#X msg 4 281 stop;
#X obj 23 414 outlet;
#X obj 126 174 inlet;
#X obj 4 215 + 0, f 25;
#X obj 23 395 change;
#X obj 4 85 spigot, f 7;
#X obj 4 5 inlet~;
#X obj 4 154 cyclone/round 1 @nearest 1;
#X obj 446 45 s PEAKS;
#X obj 4 233 else/spread 48 84;
#X obj 36 67 expr if($f1 < 48 || $f1 > 80 \, 0 \, 1);
#X obj 4 46 t f f f, f 13;
#X obj 123 324 delay 50 1 msec;
#X obj 4 25 sigmund~ -npts 2048 -hop 512 -npeak 15 -minpower 50 -quality 0.8 pitch peaks, f 89;
#X connect 0 0 1 1;
#X connect 0 0 15 0;
#X connect 1 0 0 0;
#X connect 2 0 3 0;
#X connect 3 0 11 0;
#X connect 4 0 12 0;
#X connect 5 0 4 1;
#X connect 5 1 20 0;
#X connect 5 2 6 0;
#X connect 6 0 20 0;
#X connect 7 0 8 0;
#X connect 8 0 20 0;
#X connect 10 0 11 1;
#X connect 11 0 17 0;
#X connect 12 0 9 0;
#X connect 13 0 1 0;
#X connect 14 0 21 0;
#X connect 15 0 2 0;
#X connect 17 0 7 0;
#X connect 17 1 5 0;
#X connect 17 2 7 0;
#X connect 18 0 13 1;
#X connect 19 0 13 0;
#X connect 19 1 18 0;
#X connect 20 0 4 0;
#X connect 21 0 19 0;
#X connect 21 1 16 0;
#X restore 9 50 pd pitch;
#X obj 46 29 nbx 5 14 -1e+37 1e+37 0 0 empty empty empty 0 -8 0 8 #fcfcfc #000000 #000000 0 256;
#X msg 458 390 \; pd dsp \$1;
#X obj 458 362 tgl 25 0 empty empty empty 0 -8 0 8 #fcfcfc #000000 #000000 0 1;
#X obj 9 71 nbx 5 14 -1e+37 1e+37 0 0 empty empty empty 0 -8 0 8 #fcfcfc #000000 #000000 0 256;
#X obj 97 273 else/giga.rev~;
#X obj 97 32 r PEAKS;
#X obj 399 105 r note1;
#X obj 445 106 r note2;
#X msg 399 215 go bang;
#X msg 97 231 sigmund \$1 \$2 \$3 \$4 \$5;
#X obj 399 236 t a b;
#X obj 399 193 spigot;
#X msg 399 126 1;
#X msg 445 127 2;
#X obj 399 168 delay 1000 1 msec;
#X obj 219 233 unpack f;
#X obj 97 211 t a a, f 25;
#X obj 219 254 sel 14;
#X obj 97 144 spigot;
#X obj 124 120 tgl 15 0 empty empty empty 0 -8 0 8 #fcfcfc #000000 #000000 0 1;
#X msg 124 101 1;
#N canvas -38 -23 1279 965 freeze 0;
#X obj 6 7 inlet;
#X obj 6 36 route go sigmund switch, f 113;
#X obj 55 291 outlet~;
#X obj 245 55 bng 15 250 50 0 empty empty empty 0 -8 0 8 #fcfcfc #000000 #000000;
#X text 542 416 f a p;
#X obj 245 9 inlet;
#X obj 278 9 block~ 64;
#X msg 246 75 reset bang;
#X obj 7 166 partial-synth;
#X obj 78 166 partial-synth;
#X obj 150 166 partial-synth;
#X obj 223 166 partial-synth;
#X obj 7 136 route 0;
#X obj 78 136 route 1;
#X obj 150 136 route 2;
#X obj 223 136 route 3;
#X msg 355 111 speed 2;
#X connect 0 0 1 0;
#X connect 1 1 12 0;
#X connect 1 1 15 0;
#X connect 1 1 14 0;
#X connect 1 1 13 0;
#X connect 3 0 7 0;
#X connect 5 0 3 0;
#X connect 7 0 8 0;
#X connect 7 0 11 0;
#X connect 7 0 10 0;
#X connect 7 0 9 0;
#X connect 8 0 2 0;
#X connect 9 0 2 0;
#X connect 10 0 2 0;
#X connect 11 0 2 0;
#X connect 12 0 8 0;
#X connect 13 0 9 0;
#X connect 14 0 10 0;
#X connect 15 0 11 0;
#X connect 16 0 11 0;
#X connect 16 0 10 0;
#X connect 16 0 9 0;
#X connect 16 0 8 0;
#X restore 97 253 pd freeze;
#X obj 164 335 *~ 0.4;
#X obj 97 335 *~ 0.4;
#X obj 188 14 bng 25 250 50 0 empty empty empty 0 -8 0 8 #fcfcfc #000000 #000000;
#X obj 97 376 dac~, f 14;
#X obj 219 322 nbx 5 14 -1e+37 1e+37 0 0 empty empty empty 0 -8 0 8 #fcfcfc #000000 #000000 0 256;
#X obj 219 301 else/count -reset 0;
#X msg 311 220 0;
#X msg 219 362 0;
#X obj 188 49 t b b b, f 50;
#X obj 219 341 sel 20;
#X obj 9 90 sel 76;
#X obj 9 111 bng 15 250 50 0 empty empty empty 0 -8 0 8 #fcfcfc #000000 #000000;
#X connect 0 0 1 0;
#X connect 1 0 5 0;
#X connect 2 0 1 1;
#X connect 4 0 3 0;
#X connect 5 0 34 0;
#X connect 6 0 25 0;
#X connect 6 1 24 0;
#X connect 7 0 20 0;
#X connect 8 0 14 0;
#X connect 9 0 15 0;
#X connect 10 0 12 0;
#X connect 11 0 23 0;
#X connect 13 0 10 0;
#X connect 14 0 16 0;
#X connect 15 0 16 0;
#X connect 16 0 13 0;
#X connect 17 0 19 0;
#X connect 18 0 11 0;
#X connect 18 1 17 0;
#X connect 19 0 29 0;
#X connect 20 0 18 0;
#X connect 21 0 20 1;
#X connect 22 0 21 0;
#X connect 23 0 6 0;
#X connect 24 0 27 1;
#X connect 25 0 27 0;
#X connect 26 0 32 0;
#X connect 28 0 33 0;
#X connect 29 0 28 0;
#X connect 30 0 29 0;
#X connect 31 0 21 0;
#X connect 32 0 22 0;
#X connect 32 1 30 0;
#X connect 32 2 23 1;
#X connect 33 0 31 0;
#X connect 34 0 35 0;
#X connect 35 0 26 0;
